<svg xmlns="http://www.w3.org/2000/svg" width="147" height="106" fill="none" viewBox="0 0 147 106"><g clip-path="url(#clip0_1_2712)"><path fill="#6180A4" d="M25.0744 26.1582C24.3628 33.5804 23.7117 40.455 22.9826 48.1111C18.2743 46.2264 17.141 42.766 16.9389 39.6542C16.296 29.4736 15.5767 19.1943 16.1212 9.03604C16.5367 1.1682 21.7098 -0.213329 28.0193 4.99802C33.2735 9.34188 38.4338 13.821 43.8981 17.8879C46.5626 19.8744 49.8988 20.9218 52.7575 22.66C54.0722 23.4654 55.0002 24.8996 56.0873 26.0472C54.5354 27.1534 52.9102 29.2688 51.4554 29.1542C48.7065 28.9392 46.0261 27.4876 43.3568 26.4545C41.9497 25.9165 40.6334 25.1477 37.4579 23.6085C39.3059 26.8285 39.9091 28.8134 41.235 30.0374C49.2937 37.5329 56.937 45.6412 65.7757 52.0702C85.6496 66.5424 106.894 78.5139 131.69 82.5413C132.979 82.7514 134.415 82.9679 135.403 83.6858C136.342 84.3575 137.353 85.7439 137.288 86.7387C137.23 87.7192 135.946 89.2552 135.007 89.4271C132.205 89.9141 129.165 90.4935 126.485 89.8854C118.829 88.1439 111.075 86.4423 103.766 83.6376C79.6933 74.4626 58.051 61.1827 39.5333 43.1897C34.5003 38.3127 30.3826 32.4631 25.0744 26.1582Z"/></g><defs><clipPath id="clip0_1_2712"><rect width="145.113" height="40.559" fill="#fff" transform="translate(126.851 105.93) rotate(-150.945)"/></clipPath></defs></svg>