<svg xmlns="http://www.w3.org/2000/svg" width="43" height="43" fill="none" viewBox="0 0 43 43"><rect width="28.041" height="7.01" x="7.741" y="28.798" stroke="#364C65" stroke-width="2" rx="3.505"/><path stroke="#364C65" stroke-width="2" d="M8.6507 19.6463L14.7515 28.7975H28.7721L34.8729 19.6463C35.3083 18.9933 35.526 18.6667 35.4908 18.311C35.4555 17.9552 35.178 17.6777 34.6231 17.1227L34.623 17.1227L21.7618 4.26147L8.90059 17.1227C8.3456 17.6777 8.0681 17.9552 8.03287 18.311C7.99764 18.6667 8.21533 18.9933 8.6507 19.6463Z"/><path stroke="#364C65" stroke-width="2" d="M26.0195 20.0346C26.0195 22.3861 24.1133 24.2923 21.7618 24.2923C19.4103 24.2923 17.5041 22.3861 17.5041 20.0346C17.5041 17.6831 19.4103 15.7769 21.7618 15.7769C24.1133 15.7769 26.0195 17.6831 26.0195 20.0346Z"/><path stroke="#364C65" stroke-width="2" d="M21.7618 4.26147V16.5295"/></svg>