<svg xmlns="http://www.w3.org/2000/svg" width="42" height="41" viewBox="0 0 42 41" fill="none">
  <path d="M35.6518 8.19393L34.4139 9.04118V9.04118L35.6518 8.19393ZM35.6518 28.5857L34.4139 27.7384L35.6518 28.5857ZM33.4446 30.7403L32.6251 29.484L32.6251 29.484L33.4446 30.7403ZM25 32.0538L24.9936 30.5538C24.1677 30.5574 23.5 31.2279 23.5 32.0538H25ZM25 32.0565L26.3351 32.7403C26.4435 32.5287 26.5 32.2943 26.5 32.0565H25ZM21.89 38.1283L23.2251 38.8121H23.2251L21.89 38.1283ZM20.11 38.1283L18.7749 38.8121L20.11 38.1283ZM17 32.0565H15.5C15.5 32.2943 15.5565 32.5287 15.6649 32.7403L17 32.0565ZM17 32.0538H18.5C18.5 31.2279 17.8323 30.5574 17.0064 30.5538L17 32.0538ZM8.55544 30.7403L9.37492 29.484L9.37492 29.484L8.55544 30.7403ZM6.34824 28.5857L7.58605 27.7384H7.58605L6.34824 28.5857ZM6.34824 8.19393L7.58605 9.04118H7.58605L6.34824 8.19393ZM8.55544 6.03929L7.73595 4.78293V4.78293L8.55544 6.03929ZM33.4446 6.03929L32.6251 7.29565V7.29565L33.4446 6.03929ZM38.5 18.3898C38.5 15.6797 38.5019 13.5315 38.3234 11.8185C38.1421 10.0786 37.7618 8.62106 36.8896 7.34668L34.4139 9.04118C34.8899 9.73654 35.1838 10.6349 35.3395 12.1295C35.4981 13.6509 35.5 15.6158 35.5 18.3898H38.5ZM36.8896 29.4329C37.7618 28.1586 38.1421 26.7011 38.3234 24.9611C38.5019 23.2481 38.5 21.0999 38.5 18.3898H35.5C35.5 21.1638 35.4981 23.1287 35.3395 24.6502C35.1838 26.1447 34.8899 27.0431 34.4139 27.7384L36.8896 29.4329ZM34.264 31.9967C35.3009 31.3204 36.1936 30.4497 36.8896 29.4329L34.4139 27.7384C33.9426 28.4271 33.3352 29.0208 32.6251 29.484L34.264 31.9967ZM25.0064 33.5538C27.1571 33.5446 28.9193 33.505 30.3801 33.3079C31.8636 33.1077 33.1333 32.7342 34.264 31.9967L32.6251 29.484C31.9931 29.8962 31.1982 30.1703 29.979 30.3348C28.737 30.5024 27.1583 30.5446 24.9936 30.5538L25.0064 33.5538ZM26.5 32.0565V32.0538H23.5V32.0565H26.5ZM23.2251 38.8121L26.3351 32.7403L23.6649 31.3727L20.555 37.4445L23.2251 38.8121ZM18.7749 38.8121C19.7039 40.6259 22.2961 40.6259 23.2251 38.8121L20.555 37.4445C20.7408 37.0817 21.2592 37.0817 21.445 37.4445L18.7749 38.8121ZM15.6649 32.7403L18.7749 38.8121L21.445 37.4445L18.3351 31.3727L15.6649 32.7403ZM15.5 32.0538V32.0565H18.5V32.0538H15.5ZM7.73595 31.9967C8.86667 32.7342 10.1363 33.1077 11.6199 33.3079C13.0807 33.505 14.8429 33.5446 16.9936 33.5538L17.0064 30.5538C14.8417 30.5446 13.263 30.5024 12.021 30.3348C10.8018 30.1703 10.0069 29.8962 9.37492 29.484L7.73595 31.9967ZM5.11043 29.4329C5.80639 30.4497 6.69906 31.3204 7.73595 31.9967L9.37492 29.484C8.66478 29.0208 8.05743 28.4271 7.58605 27.7384L5.11043 29.4329ZM3.5 18.3898C3.5 21.0999 3.4981 23.2481 3.67661 24.9611C3.85793 26.7011 4.23815 28.1586 5.11044 29.4329L7.58605 27.7384C7.11009 27.0431 6.81619 26.1447 6.66045 24.6502C6.5019 23.1287 6.5 21.1638 6.5 18.3898H3.5ZM5.11044 7.34668C4.23815 8.62106 3.85793 10.0786 3.67661 11.8185C3.4981 13.5315 3.5 15.6797 3.5 18.3898H6.5C6.5 15.6158 6.5019 13.6509 6.66045 12.1295C6.81619 10.6349 7.11009 9.73654 7.58605 9.04118L5.11044 7.34668ZM7.73595 4.78293C6.69906 5.45926 5.80639 6.32991 5.11044 7.34668L7.58605 9.04118C8.05743 8.3525 8.66478 7.75885 9.37492 7.29565L7.73595 4.78293ZM19 3.22314C16.2216 3.22314 14.0275 3.22142 12.2795 3.395C10.5081 3.57091 9.03026 3.93869 7.73595 4.78293L9.37492 7.29565C10.0984 6.82374 11.0339 6.53345 12.5759 6.38032C14.1413 6.22487 16.1606 6.22314 19 6.22314V3.22314ZM23 3.22314H19V6.22314H23V3.22314ZM34.264 4.78293C32.9697 3.93869 31.4919 3.57091 29.7205 3.395C27.9725 3.22142 25.7784 3.22314 23 3.22314V6.22314C25.8394 6.22314 27.8587 6.22487 29.4241 6.38032C30.9661 6.53345 31.9016 6.82374 32.6251 7.29565L34.264 4.78293ZM36.8896 7.34668C36.1936 6.32991 35.3009 5.45926 34.264 4.78293L32.6251 7.29565C33.3352 7.75885 33.9426 8.3525 34.4139 9.04118L36.8896 7.34668Z" fill="#364C65"/>
  <ellipse cx="29" cy="18.5476" rx="2" ry="1.95238" fill="#364C65" stroke="#364C65" stroke-linecap="round"/>
  <ellipse cx="21" cy="18.5476" rx="2" ry="1.95238" fill="#364C65" stroke="#364C65" stroke-linecap="round"/>
  <ellipse cx="13" cy="18.5476" rx="2" ry="1.95238" fill="#364C65" stroke="#364C65" stroke-linecap="round"/>
</svg>