<svg xmlns="http://www.w3.org/2000/svg" width="40" height="40" viewBox="0 0 40 40" fill="none">
  <path d="M31.0467 5.65458C29.3242 4.33286 27.3907 3.31642 25.3305 2.64686C24.8937 2.50492 24.6754 2.43395 24.4866 2.53645C24.2978 2.63895 24.2362 2.86889 24.1129 3.32877L19.6937 19.8215C19.5717 20.2769 19.5107 20.5045 19.6143 20.6839C19.7178 20.8632 19.9455 20.9242 20.4008 21.0463L36.8936 25.4655C37.3534 25.5887 37.5834 25.6503 37.7665 25.5381C37.9497 25.4258 37.9974 25.2012 38.0929 24.752C38.5431 22.633 38.6297 20.4503 38.3463 18.2977C38.0193 15.8142 37.2064 13.4195 35.9539 11.2502C34.7015 9.08085 33.034 7.17947 31.0467 5.65458Z" stroke="#364C65" stroke-width="3"/>
  <path d="M18.5006 10.9823C15.9419 10.6467 13.3408 11.0598 11.012 12.1716C8.68317 13.2833 6.72643 15.0461 5.37848 17.2467C4.03054 19.4472 3.34916 21.9913 3.41678 24.571C3.48441 27.1507 4.29813 29.6555 5.75951 31.7824C7.22088 33.9093 9.26729 35.5672 11.6512 36.5554C14.035 37.5436 16.6542 37.8199 19.1917 37.3508C21.7293 36.8816 24.0766 35.6872 25.9495 33.912C27.8225 32.1368 29.1409 29.8568 29.7453 27.348" stroke="#364C65" stroke-width="3"/>
</svg>