<svg xmlns="http://www.w3.org/2000/svg" width="43" height="43" viewBox="0 0 43 43" fill="none">
  <path d="M27.7708 18.8125L22.3958 24.1875L18.8125 20.6042L13.4375 25.9792" stroke="#364C65" stroke-width="3" stroke-linecap="round" stroke-linejoin="round"/>
  <path d="M25.0834 8.95825H10.3667C9.24658 8.95825 8.68653 8.95825 8.25871 9.17624C7.88238 9.36799 7.57642 9.67395 7.38467 10.0503C7.16669 10.4781 7.16669 11.0381 7.16669 12.1583V32.6333C7.16669 33.7534 7.16669 34.3134 7.38467 34.7412C7.57642 35.1176 7.88238 35.4235 8.25871 35.6153C8.68653 35.8333 9.24658 35.8333 10.3667 35.8333H30.8417C31.9618 35.8333 32.5218 35.8333 32.9497 35.6153C33.326 35.4235 33.632 35.1176 33.8237 34.7412C34.0417 34.3134 34.0417 33.7534 34.0417 32.6333V17.9166" stroke="#364C65" stroke-width="3" stroke-linecap="round"/>
  <ellipse cx="34.0416" cy="8.95833" rx="3.58333" ry="3.58333" fill="#364C65"/>
</svg>