<svg xmlns="http://www.w3.org/2000/svg" width="41" height="41" viewBox="0 0 41 41" fill="none">
  <path d="M5.125 16.834C5.125 15.0847 6.5431 13.6666 8.29242 13.6666V13.6666C9.49216 13.6666 10.5889 12.9887 11.1255 11.9157L12.5611 9.0444C13.099 7.96857 13.368 7.43065 13.8513 7.13195C14.3346 6.83325 14.936 6.83325 16.1388 6.83325H24.8612C26.064 6.83325 26.6654 6.83325 27.1487 7.13195C27.632 7.43065 27.901 7.96856 28.4389 9.0444L29.8745 11.9157C30.4111 12.9887 31.5078 13.6666 32.7076 13.6666V13.6666C34.4569 13.6666 35.875 15.0847 35.875 16.834V28.1666C35.875 30.995 35.875 32.4092 34.9963 33.2879C34.1176 34.1666 32.7034 34.1666 29.875 34.1666H11.125C8.29657 34.1666 6.88236 34.1666 6.00368 33.2879C5.125 32.4092 5.125 30.995 5.125 28.1666V16.834Z" stroke="#364C65" stroke-width="3"/>
  <path d="M25.8333 22.2083C25.8333 25.1539 23.4455 27.5417 20.5 27.5417C17.5545 27.5417 15.1667 25.1539 15.1667 22.2083C15.1667 19.2628 17.5545 16.875 20.5 16.875C23.4455 16.875 25.8333 19.2628 25.8333 22.2083Z" stroke="#364C65" stroke-width="3"/>
</svg>