<svg xmlns="http://www.w3.org/2000/svg" width="72" height="57" fill="none" viewBox="0 0 72 57"><g clip-path="url(#clip0_1_1039)"><path fill="#FAB437" d="M3.77992e-06 13.7723C0.235542 12.7399 0.415297 11.6951 0.719015 10.6872C2.6529 4.36961 7.9153 0.319689 14.5599 0.0124115C16.6984 -0.0859198 18.3533 1.26611 18.5331 3.2757C18.688 4.98416 17.2996 6.58201 15.3657 6.90158C14.5413 7.03678 13.6798 7.05521 12.8864 7.2826C9.45868 8.26589 7.28306 11.1666 7.09092 14.9645C7.04753 15.7942 7.08471 16.6238 7.08471 17.6133C7.64877 17.6379 8.14463 17.6809 8.6343 17.6809C14.2562 17.687 19.8719 17.6809 25.4938 17.687C29.969 17.687 32.3368 20.0408 32.3368 24.4533C32.3368 33.1369 32.3368 41.8206 32.3306 50.5043C32.3306 54.4989 29.938 56.9571 25.9029 56.9817C19.438 57.0247 12.9793 57.0124 6.51447 56.9817C3.03099 56.9632 1.32645 55.5436 -0.0061946 51.6965C5.38486e-06 39.049 2.67531e-06 26.4076 3.77992e-06 13.7723ZM25.2211 24.6868C19.5186 24.6868 14.0021 24.7175 8.48554 24.6622C7.35744 24.6499 7.05992 24.9941 7.06612 26.0818C7.10331 33.604 7.10331 41.12 7.05992 48.6422C7.05372 49.6685 7.33885 50.0003 8.40496 49.9942C13.6488 49.9512 18.8926 49.9819 24.1364 49.9819C24.4897 49.9819 24.8492 49.902 25.2273 49.859C25.2211 41.4642 25.2211 33.1738 25.2211 24.6868Z"/><path fill="#FAB437" d="M46.7604 17.6806C49.184 17.6806 51.5145 17.6806 53.8513 17.6806C57.6943 17.6806 61.5373 17.6683 65.374 17.6806C69.4402 17.6991 71.9691 20.1511 71.9815 24.1826C72.0063 32.9646 72.0125 41.7405 71.9815 50.5225C71.9629 54.4802 69.4711 56.9569 65.4794 56.9753C59.0579 57.006 52.6426 56.9999 46.2211 56.9753C42.0001 56.9568 39.6509 54.5662 39.6509 50.3627C39.6509 38.5632 39.6447 26.7637 39.6509 14.9643C39.6571 8.27792 44.0765 2.38434 50.5228 0.565256C51.8059 0.202669 53.1881 0.0613234 54.5269 0.0183014C56.4546 -0.0492987 57.8492 1.272 58.0104 3.10337C58.184 5.05151 57.0497 6.59404 55.0848 6.83987C53.0145 7.09798 51.0373 7.43599 49.4195 8.91092C46.8534 11.2647 46.4753 14.2514 46.7604 17.6806ZM46.7356 49.8403C47.0331 49.9018 47.2129 49.9632 47.3864 49.9632C52.8658 49.9694 58.3451 49.9509 63.8244 49.9878C64.872 49.9939 64.9154 49.4593 64.9154 48.6788C64.903 41.1075 64.8844 33.5423 64.9278 25.971C64.934 24.9078 64.5806 24.6435 63.5517 24.6497C58.3513 24.6927 53.1571 24.6681 47.9567 24.6743C47.56 24.6743 47.1571 24.7419 46.7294 24.7787C46.7356 33.192 46.7356 41.4516 46.7356 49.8403Z"/></g><defs><clipPath id="clip0_1_1039"><rect width="72" height="57" fill="#fff" transform="translate(72 57) rotate(-180)"/></clipPath></defs></svg>