<svg width="1920" height="1216" viewBox="0 0 1920 1216" fill="none" xmlns="http://www.w3.org/2000/svg">
<g opacity="0.8">
<g opacity="0.5">
<path d="M1582.72 467.295C1573.86 484.118 1560.73 498.393 1544.67 509.055C1520.7 524.982 1476.93 560.55 1475.58 608.684C1473.74 675.077 1528.97 694.786 1564.49 689.802C1600 684.818 1726.74 605.526 1762.96 457.7C1795.38 325.422 1660.7 250.098 1610.77 309.175C1567.48 360.418 1617.74 400.762 1582.72 467.295Z" fill="#CED3E6" fill-opacity="0.5"/>
</g>
<g opacity="0.5">
<path d="M150.887 188.743C151.964 185.679 150.164 182.256 146.868 181.098C143.572 179.939 140.027 181.484 138.95 184.548C137.873 187.612 139.672 191.035 142.968 192.194C146.265 193.352 149.81 191.807 150.887 188.743Z" fill="#CED3E6" fill-opacity="0.5"/>
</g>
<path d="M1705.11 821.26C1705.4 819.447 1706.94 818.057 1708.78 818.03C1711.9 817.984 1714.07 821.746 1711.41 824.857C1708.02 827.156 1704.62 824.442 1705.11 821.26Z" fill="#CED3E6" fill-opacity="0.5"/>
<path d="M461.706 772.492C459.876 768.68 455.303 767.073 451.491 768.902C447.68 770.732 446.072 775.305 447.902 779.117C449.731 782.928 454.304 784.536 458.116 782.706C461.928 780.877 463.535 776.304 461.706 772.492Z" fill="#CED3E6" fill-opacity="0.5"/>
<g opacity="0.8">
<path d="M1478.36 740.144C1482.62 740.424 1485.86 744.097 1485.58 748.359C1485.3 752.62 1481.62 755.855 1477.36 755.576C1473.1 755.297 1469.87 751.623 1470.15 747.362C1470.42 743.097 1474.1 739.865 1478.36 740.144Z" fill="#CED3E6" fill-opacity="0.5"/>
</g>
<path d="M1447.07 180.958C1447.01 179.122 1448.27 177.468 1450.07 177.104C1453.13 176.474 1455.95 179.769 1453.92 183.325C1451.02 186.216 1447.17 184.175 1447.07 180.958Z" fill="#CED3E6" fill-opacity="0.5"/>
<path d="M1803.92 216.188C1808.16 215.663 1812.02 218.679 1812.53 222.921C1813.06 227.159 1810.04 231.022 1805.8 231.537C1801.56 232.062 1797.7 229.047 1797.18 224.804C1796.67 220.569 1799.68 216.713 1803.92 216.188Z" fill="#CED3E6" fill-opacity="0.5"/>
<path d="M951.563 580.561C954.019 581.424 955.304 584.114 954.443 586.563C953.582 589.013 950.89 590.305 948.441 589.444C945.984 588.58 944.7 585.891 945.56 583.441C946.421 580.992 949.113 579.7 951.563 580.561Z" fill="#CED3E6" fill-opacity="0.5"/>
</g>
<path d="M1721.8 476.538C1721.8 476.538 1766.31 536.85 1776.47 566.903C1786.62 596.956 1761.98 618.29 1761.98 618.29L1739.09 626.871C1739.09 626.854 1715.56 520.768 1721.8 476.538Z" fill="#084FC7"/>
<path d="M1717.86 645.476C1698.41 651.912 1650.87 668.801 1630.23 661.97C1629.35 661.678 1628.55 661.352 1627.77 660.975C1625.52 659.876 1623.72 658.4 1622.44 656.478C1614.35 644.172 1606.32 592.527 1609.93 562.182C1610.38 558.389 1610.6 554.27 1610.67 549.945C1610.77 543.577 1610.57 536.764 1610.29 529.915C1609.28 504.136 1605.21 486.338 1616.26 480.073C1626.17 474.444 1638.72 470.05 1646.71 468.145C1651.66 466.96 1659.77 464.489 1665.46 464.592L1690.07 469.054C1690.07 469.054 1711.31 472.59 1716.21 476.211C1721.11 479.816 1723.62 495.726 1732.47 510.298C1741.32 524.869 1743.24 539.493 1734.79 555.489C1727.43 569.408 1728.72 564.122 1727.76 586.949C1726.59 614.925 1755.86 632.913 1717.86 645.476Z" fill="white"/>
<g opacity="0.8">
<path d="M1652.52 514.4C1652.52 514.4 1679.2 507.518 1713.24 513.868L1714.07 537.365C1714.07 537.365 1676.63 533.211 1653.06 539.201L1652.52 514.4Z" fill="#CED3E6"/>
</g>
<g opacity="0.8">
<path d="M1683.17 494.559C1682.8 494.559 1682.44 494.542 1682.07 494.525C1667.49 493.769 1654.12 480.931 1653.57 480.382C1653.18 480.004 1653.18 479.369 1653.55 478.975C1653.93 478.58 1654.57 478.58 1654.96 478.957C1655.1 479.078 1668.35 491.83 1682.17 492.534C1695.4 493.237 1697 480.125 1697.07 479.558C1697.14 479.009 1697.62 478.614 1698.17 478.683C1698.72 478.734 1699.11 479.232 1699.05 479.781C1699.05 479.936 1697.29 494.559 1683.17 494.559Z" fill="#CED3E6"/>
</g>
<g opacity="0.8">
<path d="M1641.84 612.197C1641.74 612.111 1641.66 612.025 1641.57 611.905C1641.28 611.407 1641.43 610.772 1641.91 610.48C1660.87 599.015 1679.05 594.982 1690.96 593.609C1703.9 592.116 1712.24 593.317 1712.58 593.386C1713.15 593.471 1713.54 594.003 1713.46 594.57C1713.37 595.136 1712.84 595.531 1712.27 595.445C1712.19 595.428 1703.8 594.227 1691.12 595.703C1679.43 597.059 1661.57 601.04 1642.98 612.282C1642.63 612.471 1642.19 612.437 1641.84 612.197Z" fill="#CED3E6"/>
</g>
<path d="M1666.63 654.831C1649.12 649.287 1633.27 638.131 1622.46 628.193C1621.6 627.404 1620.78 626.631 1619.99 625.859C1614.38 620.418 1610.43 623.216 1608.71 620.092C1602.16 608.129 1605.88 561.187 1608.71 543.938C1611.55 526.706 1599.64 495.126 1606.05 483.832C1612.46 472.539 1634.54 468.591 1634.54 468.591C1634.54 468.591 1631.41 464.953 1637.34 460.782C1643.27 456.611 1659.05 458.345 1659.05 458.345C1659.81 532.954 1670.39 602.242 1666.63 654.831Z" fill="#0875F7"/>
<path d="M1649.41 633.445C1648.92 633.445 1648.51 633.102 1648.44 632.622C1640.47 580.874 1648.36 483.524 1648.44 482.545C1648.49 482.013 1648.96 481.619 1649.49 481.653C1650.02 481.704 1650.44 482.168 1650.39 482.7C1650.3 483.678 1642.45 580.788 1650.39 632.313C1650.47 632.845 1650.09 633.342 1649.56 633.428C1649.51 633.445 1649.46 633.445 1649.41 633.445Z" fill="white"/>
<path d="M1665.44 641.203C1664.98 641.203 1664.57 640.877 1664.48 640.396C1654.05 580.96 1653.22 478.392 1653.22 477.362C1653.22 476.83 1653.65 476.384 1654.19 476.384C1654.72 476.384 1655.17 476.813 1655.17 477.345C1655.17 478.374 1656.01 580.771 1666.41 640.053C1666.49 640.585 1666.15 641.083 1665.61 641.186C1665.55 641.203 1665.49 641.203 1665.44 641.203Z" fill="#084FC7"/>
<path d="M1648.13 476.778C1648.05 476.778 1647.96 476.761 1647.87 476.744C1639.62 474.547 1634.57 469.69 1634.35 469.484C1633.97 469.106 1633.95 468.488 1634.33 468.111C1634.71 467.733 1635.33 467.716 1635.71 468.094C1635.76 468.145 1640.62 472.814 1648.35 474.873C1648.87 475.01 1649.18 475.542 1649.04 476.075C1648.96 476.486 1648.56 476.778 1648.13 476.778Z" fill="#084FC7"/>
<path d="M1742.51 622.255C1742.51 622.255 1736.27 643.246 1713.03 653.252C1710.14 596.338 1703.61 531.341 1695.18 462.207C1695.18 462.207 1704.06 460.645 1707.76 465.725C1709.35 467.905 1709.7 471.612 1709.7 471.612C1709.7 471.612 1714.23 472.487 1719.2 474.805C1724.17 477.122 1723.6 480.297 1724.79 488.364C1725.97 496.43 1738.45 508.908 1742.51 525.814C1746.56 542.72 1735.8 553.498 1732.45 567.692C1729.08 581.852 1742.51 622.255 1742.51 622.255Z" fill="#0875F7"/>
<path d="M1722.56 631.059C1722.02 631.059 1721.59 630.648 1721.58 630.116C1719.33 552.692 1705.16 483.506 1705.03 482.82C1704.92 482.288 1705.25 481.773 1705.78 481.67C1706.32 481.567 1706.83 481.893 1706.93 482.425C1707.07 483.112 1721.27 552.451 1723.52 630.064C1723.54 630.596 1723.11 631.059 1722.57 631.059C1722.57 631.059 1722.57 631.059 1722.56 631.059Z" fill="white"/>
<path d="M1701.17 478.924C1700.71 478.924 1700.3 478.58 1700.21 478.117C1700.12 477.585 1700.49 477.087 1701 476.984C1701.07 476.967 1707.33 475.834 1708.75 471.32C1708.91 470.805 1709.46 470.514 1709.97 470.685C1710.49 470.84 1710.76 471.389 1710.61 471.904C1708.8 477.568 1701.62 478.855 1701.33 478.907C1701.28 478.907 1701.22 478.924 1701.17 478.924Z" fill="#084FC7"/>
<path d="M1720.28 631.06C1719.8 631.06 1719.37 630.7 1719.32 630.202C1712.45 573.117 1701.59 481.893 1701.48 480.984C1701.41 480.452 1701.81 479.971 1702.34 479.903C1702.88 479.834 1703.36 480.229 1703.43 480.761C1703.53 481.67 1714.39 572.911 1721.26 629.979C1721.33 630.511 1720.95 630.991 1720.4 631.06C1720.35 631.06 1720.32 631.06 1720.28 631.06Z" fill="#084FC7"/>
<path d="M1662.56 672.045C1665.54 674.174 1670.21 676.388 1677.24 678.619C1717.11 691.286 1753.67 670.844 1753.67 670.844C1755.88 659.945 1754.51 647.553 1750.83 643.022C1751.98 641.409 1751.23 639.487 1751.23 639.487L1787.92 601.453C1767.05 618.719 1741.24 624.366 1721.15 636.5C1721.15 636.5 1721.15 636.5 1721.13 636.5C1715.34 640.001 1710.13 643.074 1706.32 645.202C1700.49 648.463 1693.07 648.789 1685.78 647.776C1671.59 645.82 1657.97 638.834 1657.97 638.834C1657.97 638.834 1612.28 618.153 1603.72 618.839C1597.07 619.371 1632.92 656.736 1662.56 672.045Z" fill="#21B573"/>
<path d="M1733.18 703.935C1733.18 703.935 1721.42 700.554 1717.79 696.744L1709.61 715.967L1737.44 724.634C1737.45 724.634 1737.83 707.745 1733.18 703.935Z" fill="#EA9B7A"/>
<path d="M1800.32 759.458L1764.35 679.735C1763.01 679.632 1761.32 679.992 1759.43 680.679C1752.46 683.219 1742.64 690.221 1736.33 694.323C1735.6 694.804 1734.91 695.25 1734.27 695.645C1733.21 696.297 1732.3 696.812 1731.61 697.138C1726.06 699.627 1728.98 702.613 1728.98 702.613C1739.33 707.78 1733.02 723.089 1739.33 726.659C1739.33 726.659 1742.01 728.221 1750.56 731.98C1759.12 735.739 1767.73 744.818 1775.71 752.25C1786 761.861 1792.46 762.977 1796.16 762.101C1799.12 761.415 1800.32 759.458 1800.32 759.458Z" fill="#EBB12B"/>
<path d="M1800.32 759.458L1764.35 679.734C1763.01 679.631 1761.32 679.992 1759.43 680.678L1796.16 762.101C1799.11 761.414 1800.32 759.458 1800.32 759.458Z" fill="#C77E2E"/>
<path d="M1768.02 687.869L1766.96 685.5C1765.32 689.088 1762.16 693.155 1756.11 695.541C1748.05 698.699 1740.59 696.365 1736.35 694.34C1735.61 694.82 1734.92 695.266 1734.29 695.661C1738.6 697.978 1747.21 701.274 1756.87 697.498C1762.64 695.198 1766.05 691.456 1768.02 687.869Z" fill="#C77E2E"/>
<path d="M1754.67 728.512C1754.41 727.929 1753.76 727.568 1753.09 727.688C1752.3 727.826 1751.78 728.581 1751.92 729.37L1752.93 734.914C1753.07 735.704 1753.83 736.219 1754.62 736.081C1755.41 735.944 1755.92 735.189 1755.79 734.399L1754.77 728.855C1754.75 728.735 1754.72 728.615 1754.67 728.512Z" fill="white"/>
<path d="M1748.29 725.442C1748.03 724.859 1747.38 724.498 1746.71 724.619C1745.92 724.756 1745.4 725.511 1745.54 726.301L1746.55 731.844C1746.69 732.634 1747.44 733.149 1748.24 733.011C1749.03 732.874 1749.54 732.119 1749.4 731.329L1748.39 725.786C1748.37 725.648 1748.34 725.545 1748.29 725.442Z" fill="white"/>
<path d="M1759.84 732.186C1759.58 731.602 1758.93 731.242 1758.26 731.362C1757.47 731.499 1756.95 732.255 1757.09 733.044L1758.1 738.588C1758.24 739.377 1759 739.892 1759.79 739.755C1760.58 739.618 1761.09 738.863 1760.96 738.073L1759.94 732.529C1759.93 732.409 1759.89 732.289 1759.84 732.186Z" fill="white"/>
<path d="M1764.86 735.909C1764.6 735.325 1763.95 734.965 1763.28 735.085C1762.49 735.222 1761.97 735.978 1762.11 736.767L1763.13 742.311C1763.26 743.1 1764.02 743.615 1764.81 743.478C1765.6 743.341 1766.12 742.585 1765.98 741.796L1764.96 736.252C1764.93 736.132 1764.9 736.012 1764.86 735.909Z" fill="white"/>
<path d="M1769.88 740.184C1769.62 739.6 1768.97 739.24 1768.3 739.36C1767.51 739.497 1767 740.252 1767.13 741.042L1768.15 746.585C1768.28 747.375 1769.04 747.89 1769.83 747.753C1770.62 747.615 1771.14 746.86 1771 746.071L1769.99 740.527C1769.97 740.407 1769.93 740.287 1769.88 740.184Z" fill="white"/>
<path d="M1774.74 745.091C1774.49 744.508 1773.83 744.147 1773.16 744.267C1772.37 744.405 1771.86 745.16 1771.99 745.949L1773.01 751.493C1773.15 752.283 1773.9 752.798 1774.69 752.66C1775.48 752.523 1776 751.768 1775.86 750.978L1774.85 745.435C1774.81 745.297 1774.78 745.194 1774.74 745.091Z" fill="white"/>
<path d="M1603.73 618.839C1603.73 618.839 1574.81 603.255 1558.07 615.304C1527.44 637.341 1579.41 679.718 1638.88 700.416C1698.34 721.115 1717.64 718.284 1717.64 718.284C1717.64 718.284 1730.56 714.731 1725.98 693.826C1725.98 693.826 1691.71 680.816 1673.87 667.188C1656.01 653.543 1643.86 636.844 1603.73 618.839Z" fill="#21B573"/>
<path d="M1723.64 699.901C1711.17 696.914 1685.77 685.261 1655.67 668.767C1633.16 656.426 1607.21 640.653 1603.39 635.178C1601.33 632.226 1600.82 629.806 1601.85 627.987C1603.39 625.275 1607.86 625 1609.89 625.017C1610.41 625.017 1610.82 625.464 1610.78 625.978C1610.75 626.459 1610.35 626.819 1609.87 626.819C1607.88 626.802 1604.39 627.146 1603.41 628.879C1602.59 630.321 1603.75 632.535 1604.87 634.131C1607.95 638.542 1629.67 652.444 1656.53 667.17C1679.66 679.854 1709.55 694.649 1724.06 698.133L1723.64 699.901Z" fill="#217C58"/>
<path d="M1721.29 691.045C1719.88 702.03 1717.02 712.019 1710.82 719.691C1710.82 719.691 1716.15 723.518 1721.01 720.772C1724.72 718.678 1731.89 701.515 1729.16 692.35C1726.05 690.65 1723.36 690.05 1721.29 691.045Z" fill="#217C58"/>
<path d="M1645.84 701.755C1645.84 701.755 1657.66 699.472 1661.01 695.422L1670.45 714.044L1643.28 724.548C1643.26 724.565 1641.44 705.874 1645.84 701.755Z" fill="#EA9B7A"/>
<path d="M1582.87 763.509L1613.43 681.571C1614.77 681.365 1616.45 681.623 1618.39 682.189C1625.53 684.266 1635.79 690.582 1642.35 694.272C1643.13 694.701 1643.83 695.096 1644.5 695.439C1645.62 696.023 1646.55 696.486 1647.27 696.744C1652.97 698.855 1650.6 700.468 1650.6 700.468C1639.36 705.737 1647.59 722.729 1641.54 726.728C1641.54 726.728 1638.97 728.461 1630.68 732.787C1622.4 737.112 1614.41 746.74 1606.95 754.687C1597.32 764.951 1590.95 766.513 1587.2 765.877C1584.21 765.38 1582.87 763.509 1582.87 763.509Z" fill="#EBB12B"/>
<path d="M1582.87 763.509L1613.43 681.571C1614.77 681.365 1616.45 681.622 1618.4 682.189L1587.19 765.877C1584.21 765.379 1582.87 763.509 1582.87 763.509Z" fill="#C77E2E"/>
<path d="M1610.29 689.93L1611.2 687.493C1613.07 690.96 1616.49 694.821 1622.7 696.778C1630.94 699.404 1638.23 696.572 1642.34 694.255C1643.11 694.684 1643.82 695.079 1644.49 695.422C1640.35 698.031 1631.96 701.893 1622.08 698.752C1616.15 696.898 1612.5 693.363 1610.29 689.93Z" fill="#C77E2E"/>
<path d="M1626.33 729.593C1626.55 728.993 1627.17 728.581 1627.84 728.667C1628.63 728.752 1629.2 729.473 1629.11 730.263L1628.47 735.858C1628.39 736.648 1627.67 737.214 1626.88 737.128C1626.09 737.042 1625.52 736.321 1625.6 735.532L1626.24 729.937C1626.26 729.817 1626.29 729.696 1626.33 729.593Z" fill="white"/>
<path d="M1632.5 726.093C1632.73 725.492 1633.34 725.081 1634.02 725.166C1634.81 725.252 1635.37 725.973 1635.29 726.763L1634.65 732.358C1634.56 733.147 1633.84 733.714 1633.05 733.628C1632.26 733.542 1631.69 732.821 1631.78 732.032L1632.42 726.436C1632.43 726.316 1632.47 726.196 1632.5 726.093Z" fill="white"/>
<path d="M1621.44 733.609C1621.66 733.009 1622.28 732.614 1622.95 732.683C1623.74 732.768 1624.31 733.489 1624.23 734.279L1623.59 739.874C1623.5 740.663 1622.78 741.23 1621.99 741.144C1621.2 741.058 1620.63 740.337 1620.72 739.548L1621.36 733.953C1621.37 733.832 1621.41 733.712 1621.44 733.609Z" fill="white"/>
<path d="M1616.68 737.661C1616.9 737.06 1617.52 736.666 1618.19 736.734C1618.98 736.82 1619.55 737.541 1619.46 738.33L1618.83 743.926C1618.74 744.715 1618.02 745.282 1617.23 745.196C1616.44 745.11 1615.87 744.389 1615.96 743.6L1616.59 738.004C1616.61 737.884 1616.64 737.764 1616.68 737.661Z" fill="white"/>
<path d="M1611.94 742.26C1612.16 741.659 1612.78 741.264 1613.45 741.333C1614.24 741.419 1614.81 742.14 1614.72 742.929L1614.09 748.524C1614 749.314 1613.28 749.88 1612.49 749.794C1611.7 749.709 1611.13 748.988 1611.22 748.198L1611.85 742.603C1611.87 742.483 1611.9 742.363 1611.94 742.26Z" fill="white"/>
<path d="M1607.42 747.462C1607.64 746.862 1608.26 746.45 1608.93 746.535C1609.72 746.621 1610.29 747.342 1610.2 748.132L1609.57 753.727C1609.48 754.516 1608.76 755.083 1607.97 754.997C1607.18 754.911 1606.61 754.19 1606.7 753.401L1607.33 747.806C1607.35 747.685 1607.38 747.582 1607.42 747.462Z" fill="white"/>
<path d="M1776.12 606.173C1776.12 606.173 1803.48 587.997 1821.26 598.466C1853.8 617.603 1805.93 664.562 1748.62 690.616C1691.32 716.67 1671.83 715.623 1671.83 715.623C1671.83 715.623 1658.65 713.272 1661.28 692.024C1661.28 692.024 1694.21 675.924 1710.72 660.718C1727.24 645.528 1737.81 627.781 1776.12 606.173Z" fill="#21B573"/>
<path d="M1726.08 700.416C1722.92 701.446 1719.72 702.493 1716.4 703.54C1703.58 707.573 1688.94 711.796 1675.69 715.039L1675.64 716.927C1687.62 714.01 1701.66 710.062 1716.93 705.256C1719.93 704.312 1722.97 703.334 1726.03 702.321L1726.08 700.416Z" fill="#217C58"/>
<path d="M1664.17 697.876C1676.32 693.757 1700.55 679.837 1729 660.649C1750.27 646.3 1774.68 628.21 1777.96 622.409C1779.73 619.285 1780.04 616.831 1778.84 615.114C1777.05 612.557 1772.58 612.677 1770.55 612.883C1770.04 612.935 1769.66 613.415 1769.75 613.93C1769.83 614.393 1770.24 614.72 1770.72 614.685C1772.72 614.496 1776.21 614.514 1777.36 616.144C1778.3 617.5 1777.36 619.817 1776.4 621.516C1773.75 626.185 1753.38 642.009 1727.98 659.155C1706.12 673.899 1677.71 691.371 1663.59 696.177L1664.17 697.876Z" fill="#217C58"/>
<path d="M1665.69 688.848C1668.1 699.661 1671.86 709.341 1678.75 716.413C1678.75 716.413 1673.8 720.721 1668.71 718.421C1664.83 716.67 1656.12 700.227 1657.99 690.856C1660.93 688.883 1663.54 688.059 1665.69 688.848Z" fill="#217C58"/>
<path d="M1661.99 602.157L1659.79 633.514C1659.79 633.514 1622.44 628.193 1604.12 623.525C1598.78 622.169 1592.8 620.418 1587.3 617.501C1577.18 612.128 1568.79 602.774 1569.41 584.547C1569.6 578.694 1570.73 571.932 1573.04 564.071C1586.37 518.537 1608.71 480.297 1608.71 480.297C1637.47 492.586 1635.04 513.045 1635.04 513.045C1626.84 534.893 1608.71 581.423 1608.71 581.423C1619.25 594.279 1661.99 602.157 1661.99 602.157Z" fill="#0875F7"/>
<path d="M1608.71 582.402C1608.54 582.402 1608.35 582.35 1608.2 582.247C1605.02 580.29 1596.37 578.248 1596.29 578.231C1595.76 578.111 1595.43 577.579 1595.57 577.064C1595.69 576.532 1596.22 576.223 1596.74 576.343C1597.05 576.412 1603.11 577.836 1607.12 579.552C1606.53 578.248 1605.57 576.858 1604.25 575.347C1603.89 574.935 1603.94 574.335 1604.33 573.974C1604.74 573.614 1605.35 573.665 1605.71 574.06C1608.01 576.669 1609.32 579.037 1609.68 581.286C1609.75 581.663 1609.57 582.041 1609.26 582.247C1609.09 582.35 1608.9 582.402 1608.71 582.402Z" fill="#084FC7"/>
<path d="M1587.32 617.5C1577.19 612.128 1568.81 602.774 1569.43 584.547C1577.43 588.735 1591.41 598.895 1587.32 617.5Z" fill="#084FC7"/>
<path d="M1638.51 597.334C1638.42 597.334 1638.36 597.317 1638.27 597.3C1619.78 592.529 1608.54 582.574 1608.07 582.145C1607.75 581.853 1607.66 581.372 1607.85 580.978C1621.05 555.078 1629.38 534.516 1634.11 516.255C1634.25 515.74 1634.78 515.414 1635.3 515.551C1635.81 515.688 1636.14 516.22 1636 516.735C1631.27 534.98 1622.99 555.456 1609.93 581.166C1612.42 583.226 1623.01 591.344 1638.75 595.395C1639.27 595.532 1639.59 596.064 1639.46 596.579C1639.33 597.043 1638.94 597.334 1638.51 597.334Z" fill="#084FC7"/>
<path d="M1631.11 530.791C1630.9 530.791 1630.68 530.722 1630.51 530.585C1630.08 530.242 1630.01 529.641 1630.35 529.212L1637.21 520.613C1637.56 520.184 1638.16 520.115 1638.59 520.459C1639.02 520.802 1639.09 521.403 1638.74 521.832L1631.88 530.431C1631.68 530.654 1631.4 530.791 1631.11 530.791Z" fill="#084FC7"/>
<path d="M1663.08 451.754L1696.25 456.491C1717.8 454.346 1724.66 445.781 1728.18 427.691C1729.95 418.594 1728.79 410.562 1727.05 404.589C1726.6 397.792 1725.04 391.923 1721.83 388.044C1707.27 370.52 1694.45 371.206 1694.45 371.206C1687.93 368.22 1666.42 366.178 1652.22 383.392C1651.78 383.77 1643.11 392.935 1641.12 412.158C1639.2 430.489 1651.45 453.899 1663.08 451.754Z" fill="#39393B"/>
<path d="M1681.6 376.012C1681.6 376.012 1685.06 345.461 1657.91 349.34C1640.17 351.863 1629.19 375.875 1645.41 386.774C1661.63 397.672 1681.6 376.012 1681.6 376.012Z" fill="#39393B"/>
<path d="M1648.14 389.914C1648 389.914 1647.86 389.88 1647.73 389.812C1647.31 389.588 1647.16 389.056 1647.38 388.644C1653.67 377.231 1662.64 372.185 1669.05 369.954C1676.01 367.551 1681.43 367.842 1681.65 367.842C1682.13 367.877 1682.49 368.272 1682.46 368.752C1682.43 369.233 1682.03 369.593 1681.55 369.559C1681.34 369.542 1660.39 368.58 1648.9 389.468C1648.72 389.743 1648.43 389.914 1648.14 389.914Z" fill="#EBB12B"/>
<path d="M1665.67 444.855C1665.67 444.855 1644.51 433.03 1648.67 408.418C1652.83 383.805 1669.05 368.993 1693.92 376.133C1693.94 376.133 1691.52 447.275 1665.67 444.855Z" fill="#39393B"/>
<path d="M1724.51 399.595C1724.51 399.595 1726.68 420.723 1722.81 423.778C1718.96 426.833 1715.18 418.474 1715.18 418.474C1715.18 418.474 1720.44 399.835 1724.51 399.595Z" fill="#39393B"/>
<path d="M1714.77 425.701C1714.77 425.701 1721.07 420.175 1723.17 426.954C1725.27 433.734 1721.02 446.211 1713.17 442.899L1714.77 425.701Z" fill="#D46A43"/>
<path d="M1722.53 441.353C1721.68 442.143 1720.71 442.829 1719.66 443.396C1715.69 445.524 1710.52 445.782 1704.3 442.52C1704.3 442.52 1696.34 432.188 1708.1 413.961C1708.1 413.961 1718.87 411.129 1725.04 417.634C1725.73 418.354 1726.35 419.178 1726.9 420.139C1727.24 420.723 1727.54 421.358 1727.81 422.045C1729.99 427.588 1727.97 436.427 1722.53 441.353Z" fill="#21B573"/>
<path d="M1722.26 415.419C1722.76 412.982 1723.26 409.961 1723.59 406.615C1723.43 406.683 1723.28 406.735 1723.11 406.735C1722.44 406.786 1721.78 406.512 1721.13 406.031C1720.84 409.155 1720.39 411.987 1719.94 414.338L1722.26 415.419Z" fill="white"/>
<path d="M1722.53 441.354C1721.67 442.143 1720.71 442.83 1719.66 443.396C1725.11 432.12 1725.26 421.822 1725.04 417.634C1725.73 418.355 1726.35 419.178 1726.9 420.14C1726.9 424.877 1726.19 432.669 1722.53 441.354Z" fill="#217C58"/>
<path d="M1696.38 456.184L1693.78 473.656C1693.78 473.656 1683.08 487.369 1658.29 465.006C1661.11 457.9 1665.44 448.752 1664.33 441.749C1664.33 441.749 1666.13 443.414 1669.26 445.388C1669.9 445.8 1670.58 446.229 1671.3 446.658C1677.73 450.571 1687.56 455.566 1696.38 456.184Z" fill="#EA9B7A"/>
<path d="M1696.39 456.183L1695.17 464.352C1687.93 461.572 1675.42 455.547 1669.25 445.37C1669.89 445.782 1670.58 446.211 1671.3 446.64C1677.74 450.57 1687.57 455.565 1696.39 456.183Z" fill="#39393B"/>
<path d="M1720.14 426.473C1719.87 428.275 1719.61 429.974 1719.33 431.587C1717.34 443.636 1715.52 450.124 1712.17 452.698C1695.2 465.691 1665.3 442.726 1664.34 441.988C1664.32 441.971 1664.32 441.971 1664.32 441.971C1664.22 440.564 1664.15 439.174 1664.11 437.818C1663.72 426.215 1665.15 415.711 1667.79 405.911C1668.81 395.321 1676.52 386.465 1686.95 384.337C1697.76 382.14 1706.29 388.01 1711.56 390.516C1719.52 394.326 1723.17 405.877 1720.93 421.221C1720.66 423.057 1720.4 424.825 1720.14 426.473Z" fill="#EA9B7A"/>
<path d="M1704.99 440.512C1695.5 440.512 1691.71 431.45 1691.67 431.347C1691.5 430.901 1691.71 430.403 1692.15 430.232C1692.6 430.06 1693.1 430.266 1693.27 430.712C1693.44 431.107 1697.41 440.512 1707.76 438.522C1708.22 438.436 1708.69 438.745 1708.77 439.208C1708.86 439.671 1708.55 440.118 1708.08 440.221C1706.98 440.427 1705.95 440.512 1704.99 440.512Z" fill="#39393B"/>
<path d="M1697.68 407.799C1700.12 406.958 1699.62 403.371 1697.05 403.199C1692.66 402.908 1685.62 403.028 1685.03 406.563C1684.17 411.729 1692.36 409.584 1697.53 407.851C1697.58 407.833 1697.63 407.816 1697.68 407.799Z" fill="#39393B"/>
<path d="M1710.63 409.327C1708.74 407.576 1710.64 404.486 1713.07 405.379C1717.19 406.889 1723.6 409.824 1722.71 413.291C1721.42 418.372 1714.78 413.102 1710.75 409.447C1710.69 409.395 1710.66 409.361 1710.63 409.327Z" fill="#39393B"/>
<path d="M1697.99 444.752C1699.73 445.181 1701.19 444.855 1701.29 444.82C1701.6 444.752 1701.79 444.443 1701.72 444.134C1701.65 443.825 1701.34 443.636 1701.03 443.705C1701 443.705 1698.16 444.34 1696.01 442.452C1695.77 442.246 1695.41 442.263 1695.21 442.503C1695 442.743 1695.02 443.104 1695.26 443.31C1696.13 444.099 1697.1 444.528 1697.99 444.752Z" fill="#D46A43"/>
<path d="M1703.94 432.978C1703.79 432.909 1703.68 432.772 1703.62 432.618C1703.51 432.292 1703.68 431.931 1704.01 431.828L1708.15 430.472L1705.69 427.984C1705.56 427.846 1705.49 427.657 1705.52 427.469L1706.28 420.62C1706.31 420.277 1706.62 420.02 1706.98 420.071C1707.33 420.106 1707.59 420.415 1707.53 420.758L1706.79 427.297L1709.75 430.283C1709.91 430.438 1709.97 430.661 1709.92 430.867C1709.87 431.073 1709.72 431.245 1709.51 431.313L1704.41 432.995C1704.25 433.064 1704.1 433.047 1703.94 432.978Z" fill="#39393B"/>
<path d="M1693.21 426.421C1693.01 427.845 1689.9 428.549 1686.29 428.017C1682.68 427.485 1679.91 425.889 1680.14 424.464C1680.34 423.04 1683.45 422.336 1687.06 422.868C1690.67 423.417 1693.42 425.013 1693.21 426.421Z" fill="#D46A43"/>
<g opacity="0.8">
<path d="M1720.15 428.138C1719.88 429.94 1719.62 431.639 1719.35 433.253C1716.05 432.635 1713.62 431.142 1713.83 429.82C1714.02 428.464 1716.8 427.76 1720.15 428.138Z" fill="#D46A43"/>
</g>
<path d="M1696.74 421.341C1696.45 423.297 1695.33 424.739 1694.23 424.585C1693.13 424.43 1692.5 422.714 1692.77 420.757C1693.06 418.801 1694.18 417.359 1695.28 417.513C1696.38 417.668 1697.03 419.384 1696.74 421.341Z" fill="#39393B"/>
<path d="M1716.07 424.207C1715.78 426.164 1714.66 427.606 1713.56 427.451C1712.46 427.297 1711.83 425.58 1712.1 423.624C1712.39 421.667 1713.51 420.225 1714.61 420.38C1715.71 420.551 1716.35 422.268 1716.07 424.207Z" fill="#39393B"/>
<path d="M1671.9 435.02C1671.78 435.226 1668.32 440.787 1664.35 441.988C1664.34 441.971 1664.34 441.971 1664.34 441.971C1664.23 440.564 1664.16 439.174 1664.11 437.818C1664.27 437.8 1668.08 437.715 1671.9 435.02Z" fill="#39393B"/>
<path d="M1670.33 420.928C1670.33 420.928 1664.07 409.291 1657.13 416.672C1651.41 422.747 1657.59 442.142 1668.13 436.959L1670.33 420.928Z" fill="#EA9B7A"/>
<path d="M1667.32 433.784C1666.91 433.715 1666.61 433.372 1666.63 432.943C1666.94 424.876 1660.7 421.134 1660.44 420.98C1660.07 420.757 1659.93 420.259 1660.15 419.864C1660.38 419.469 1660.87 419.349 1661.27 419.572C1661.56 419.744 1668.63 423.949 1668.26 433.011C1668.25 433.458 1667.87 433.801 1667.42 433.784C1667.39 433.784 1667.35 433.784 1667.32 433.784Z" fill="#39393B"/>
<path d="M1660.57 427.811C1660.33 427.777 1660.12 427.64 1659.98 427.417C1659.76 427.039 1659.88 426.541 1660.28 426.301C1660.64 426.095 1663.85 424.241 1666.17 425.22C1666.58 425.391 1666.77 425.872 1666.6 426.284C1666.43 426.696 1665.95 426.885 1665.53 426.713C1664.19 426.147 1661.82 427.262 1661.1 427.691C1660.93 427.794 1660.74 427.829 1660.57 427.811Z" fill="#39393B"/>
<path d="M1689.68 431.588C1683.56 429.254 1680.48 422.389 1682.82 416.279C1685.16 410.168 1692.03 407.096 1698.15 409.43C1704.27 411.765 1707.35 418.63 1705.01 424.74C1702.67 430.85 1695.8 433.923 1689.68 431.588ZM1697.53 411.044C1692.31 409.053 1686.43 411.679 1684.44 416.897C1682.44 422.114 1685.07 427.984 1690.3 429.975C1695.52 431.966 1701.4 429.34 1703.39 424.122C1705.39 418.905 1702.76 413.035 1697.53 411.044Z" fill="white"/>
<path d="M1683.21 417.858C1683.11 417.858 1683.01 417.824 1682.9 417.772C1676.47 414.837 1670.44 417.069 1670.37 417.103C1669.93 417.275 1669.43 417.051 1669.26 416.605C1669.08 416.159 1669.31 415.661 1669.76 415.49C1670.03 415.387 1676.54 412.967 1683.62 416.21C1684.05 416.416 1684.24 416.931 1684.05 417.36C1683.88 417.686 1683.56 417.875 1683.21 417.858Z" fill="white"/>
<path d="M1715.97 434.557C1709.85 432.223 1706.77 425.358 1709.11 419.247C1711.45 413.137 1718.32 410.065 1724.44 412.399C1730.56 414.733 1733.63 421.599 1731.3 427.709C1728.98 433.819 1722.09 436.891 1715.97 434.557ZM1723.84 414.013C1718.61 412.022 1712.74 414.648 1710.74 419.865C1708.75 425.083 1711.38 430.953 1716.6 432.944C1721.83 434.935 1727.71 432.309 1729.7 427.091C1731.69 421.873 1729.06 416.004 1723.84 414.013Z" fill="white"/>
<path d="M1704.47 419.711C1704.33 419.642 1704.23 419.539 1704.14 419.402C1703.89 418.99 1704.01 418.458 1704.42 418.2C1704.54 418.132 1707.43 416.364 1710.43 418.664C1710.81 418.955 1710.88 419.505 1710.59 419.882C1710.3 420.26 1709.75 420.329 1709.37 420.037C1707.31 418.458 1705.35 419.659 1705.33 419.659C1705.06 419.848 1704.73 419.848 1704.47 419.711Z" fill="white"/>
<path d="M1710.83 379.874C1718.05 383.118 1723.72 389.125 1726.25 396.609C1727.83 401.294 1729.15 407.49 1722.55 406.683C1704.54 404.504 1694.9 385.83 1694.9 385.83C1694.9 385.83 1691.39 403.028 1677.25 400.934C1663.11 398.823 1663.55 388.181 1671.6 382.157C1678.14 377.231 1694.83 372.666 1710.83 379.874Z" fill="#39393B"/>
<path d="M1677.8 398.943C1677.8 398.943 1669.76 407.577 1672.65 416.862C1675.53 426.147 1675.72 433.596 1672.72 438.591C1672.72 438.591 1671.94 428.808 1668.35 421.393C1665.41 415.3 1662.66 410.666 1664.79 403.646C1666.25 398.84 1669.78 394.206 1677.8 398.943Z" fill="#39393B"/>
<path d="M1664.72 441.079C1658.48 442.589 1653.65 441.714 1650.08 439.465C1649.51 439.105 1648.98 438.71 1648.46 438.298C1640.97 432.034 1640.42 419.041 1645.01 412.673C1646.62 410.425 1648.5 408.915 1650.47 407.953C1651.07 407.644 1651.68 407.404 1652.28 407.215C1660.03 404.675 1668.43 409.326 1668.43 409.326C1677.23 433.458 1664.72 441.079 1664.72 441.079Z" fill="#21B573"/>
<path d="M1686.68 451.633C1668.44 447.909 1660.69 434.796 1660.33 434.161C1660.04 433.663 1660.21 433.011 1660.73 432.719C1661.22 432.428 1661.88 432.599 1662.17 433.114C1662.29 433.32 1671.76 449.213 1693.86 450.415C1694.44 450.449 1694.89 450.947 1694.86 451.53C1694.82 452.114 1694.32 452.56 1693.74 452.526C1691.23 452.389 1688.88 452.08 1686.68 451.633Z" fill="white"/>
<path d="M1699.65 452.253C1699.27 454.072 1697.49 455.256 1695.66 454.879C1693.84 454.501 1692.66 452.716 1693.03 450.897C1693.41 449.077 1695.2 447.893 1697.02 448.271C1698.84 448.648 1700.03 450.416 1699.65 452.253Z" fill="#243434"/>
<path d="M1650.07 439.466C1649.5 439.106 1648.97 438.711 1648.45 438.299C1654.23 425.255 1652.27 413.859 1650.45 407.955C1651.05 407.646 1651.65 407.405 1652.25 407.217C1654.21 413.464 1656.32 425.633 1650.07 439.466Z" fill="#217C58"/>
<path d="M1724.11 391.718C1722.58 388.852 1720.88 386.947 1720.04 386.003C1719.33 383.96 1718.58 382.038 1717.44 380.253C1713.63 374.212 1707.6 370.504 1699.48 369.251C1690.74 367.895 1683.14 369.629 1676.92 374.383C1674.98 375.859 1673.26 377.593 1671.71 379.446C1669.58 382.038 1667.81 384.904 1666.37 387.771C1661.35 397.794 1660.15 408.092 1660.13 408.229L1657.74 407.972C1657.84 406.993 1660.54 383.857 1675.44 372.461C1682.2 367.295 1690.41 365.407 1699.85 366.866C1708.68 368.221 1715.28 372.306 1719.47 378.966C1721.93 382.81 1723.36 387.221 1724.11 391.718Z" fill="white"/>
<path d="M1633.42 655.843L1625.11 640.053C1623.03 636.123 1625.93 631.403 1630.38 631.437L1761.05 632.845L1757.2 653.063L1633.42 655.843Z" fill="#39393B"/>
<path d="M1754.93 651.399H1637.99C1635.18 651.399 1633.13 649.116 1633.46 646.301L1641.43 574.147C1641.74 571.332 1644.28 569.049 1647.1 569.049H1764.04C1766.85 569.049 1768.9 571.332 1768.57 574.147L1760.6 646.301C1760.29 649.116 1757.75 651.399 1754.93 651.399Z" fill="#39393B"/>
<path d="M1636.26 654.505C1636.22 654.505 1636.17 654.505 1636.14 654.505C1635.61 654.436 1635.21 653.939 1635.28 653.407L1644.99 576.137C1645.06 575.605 1645.56 575.21 1646.09 575.279C1646.62 575.348 1647.02 575.845 1646.95 576.377L1637.24 653.647C1637.17 654.145 1636.74 654.505 1636.26 654.505Z" fill="#564C54"/>
<path d="M1693.14 611.51C1692.69 617.311 1696.97 622.306 1702.68 622.666C1708.4 623.027 1713.4 618.633 1713.85 612.832C1714.3 607.031 1710.02 602.036 1704.31 601.676C1698.59 601.315 1693.59 605.709 1693.14 611.51Z" fill="#585859"/>
<path d="M1755.5 657.68H1636.95C1634.34 657.68 1632.35 655.38 1632.69 652.805L1633.83 644.55H1761.05L1759.76 653.955C1759.47 656.1 1757.65 657.68 1755.5 657.68Z" fill="#39393B"/>
<path d="M1669.58 634.389L1668.72 638.509H1672.62L1672.19 643.4H1667.67L1666.73 647.88H1661.55L1662.5 643.4H1659.3L1658.36 647.88H1653.18L1654.13 643.4H1650.23L1650.66 638.509H1655.18L1656.04 634.389H1652.14L1652.57 629.481H1657.09L1658.03 625.001H1663.2L1662.26 629.481H1665.45L1666.4 625.001H1671.57L1670.63 629.481H1674.53L1674.1 634.372L1669.58 634.389ZM1664.42 634.389H1661.23L1660.37 638.509H1663.56L1664.42 634.389Z" fill="#EBB12B"/>
</svg>
