<svg xmlns="http://www.w3.org/2000/svg" width="1626" height="1505" fill="none" viewBox="0 0 1626 1505"><g opacity=".8"><g opacity=".5"><path fill="#CED3E6" fill-opacity=".5" d="M341.552 437.746C348.651 458.62 361.11 477.35 377.573 492.469C402.154 515.053 445.861 563.719 438.687 619.102C428.779 695.492 361.942 708.073 322.164 695.937C282.385 683.8 151.544 570.029 136.806 394.133C123.615 236.735 291.529 174.823 338.025 251.534C378.351 318.072 313.467 355.19 341.552 437.746Z"/></g><g opacity=".5"><path fill="#CED3E6" fill-opacity=".5" d="M459.23 407.354C458.551 403.649 461.232 400.053 465.218 399.323C469.203 398.592 472.985 401.004 473.664 404.709C474.343 408.414 471.663 412.009 467.677 412.74C463.691 413.471 459.909 411.059 459.23 407.354Z"/></g><g opacity=".5"><path fill="#CED3E6" fill-opacity=".5" d="M1385.23 1281.35C1384.55 1277.65 1387.23 1274.05 1391.22 1273.32C1395.2 1272.59 1398.99 1275 1399.66 1278.71C1400.34 1282.41 1397.66 1286.01 1393.68 1286.74C1389.69 1287.47 1385.91 1285.06 1385.23 1281.35Z"/></g><path fill="#CED3E6" fill-opacity=".5" d="M1140.49 156.139C1140.49 154.01 1138.98 152.139 1136.88 151.776C1133.31 151.158 1130.15 155.075 1132.63 159.12C1136.09 162.367 1140.49 159.874 1140.49 156.139Z"/><path fill="#CED3E6" fill-opacity=".5" d="M780.308 135.571C783.093 131.535 788.623 130.522 792.659 133.307C796.695 136.093 797.708 141.623 794.923 145.659C792.137 149.694 786.607 150.708 782.571 147.922C778.536 145.137 777.522 139.607 780.308 135.571Z"/><g opacity=".8"><path fill="#CED3E6" fill-opacity=".5" d="M812.519 799.648C809.769 799.397 807.332 801.416 807.081 804.166C806.829 806.916 808.849 809.353 811.599 809.605C814.349 809.856 816.785 807.837 817.037 805.087C817.294 802.336 815.269 799.9 812.519 799.648Z"/></g><path fill="#CED3E6" fill-opacity=".5" d="M1471.46 402.945C1471.86 400.852 1470.71 398.73 1468.72 397.988C1465.32 396.711 1461.5 399.976 1463.18 404.416C1465.98 408.254 1470.76 406.613 1471.46 402.945Z"/><path fill="#CED3E6" fill-opacity=".5" d="M1142.91 771.821C1138.15 770.453 1133.18 773.208 1131.82 777.975C1130.45 782.735 1133.21 787.707 1137.98 789.065C1142.74 790.433 1147.71 787.678 1149.07 782.911C1150.43 778.153 1147.67 773.189 1142.91 771.821Z"/><path fill="#CED3E6" fill-opacity=".5" d="M361.37 189.984C358.4 190.529 356.441 193.377 356.984 196.339C357.527 199.3 360.377 201.268 363.339 200.725C366.309 200.18 368.267 197.332 367.725 194.37C367.182 191.409 364.332 189.441 361.37 189.984Z"/><path fill="#EA9B7A" d="M255.604 403.788L255.806 404.745L255.957 405.513L256.222 406.962C256.386 407.906 256.537 408.826 256.676 409.745C256.94 411.584 257.167 413.386 257.369 415.187C257.76 418.789 258.05 422.354 258.214 425.931C258.378 429.495 258.428 433.06 258.391 436.625C258.34 440.189 258.189 443.741 257.949 447.293C257.697 450.845 257.331 454.397 256.89 457.936C256.638 459.7 256.411 461.476 256.121 463.239C255.982 464.121 255.843 465.003 255.692 465.884L255.2 468.517C255.049 469.399 254.847 470.268 254.671 471.149C254.482 472.018 254.318 472.9 254.103 473.769C253.7 475.507 253.309 477.258 252.842 478.996C252.615 479.866 252.401 480.735 252.161 481.591L251.43 484.173L251.241 484.816L251.153 485.143L250.963 485.798C250.774 486.415 250.585 486.944 250.371 487.486C250.169 487.99 249.955 488.506 249.74 488.96C249.526 489.438 249.299 489.854 249.072 490.282L248.744 490.874C248.631 491.076 248.517 491.265 248.404 491.441L248.063 491.995L247.735 492.512C247.508 492.864 247.294 493.167 247.067 493.482C246.184 494.716 245.314 495.749 244.469 496.693C243.625 497.638 242.805 498.469 241.985 499.25C240.359 500.812 238.782 502.135 237.231 503.382C234.129 505.85 231.09 507.929 228.052 509.869C221.999 513.735 215.984 517.073 209.931 520.21C203.891 523.346 197.813 526.243 191.71 529.014C188.646 530.387 185.582 531.735 182.505 533.045C180.967 533.7 179.428 534.355 177.877 534.997L175.532 535.942L173.124 536.899L162.557 513.043L164.612 511.997L166.718 510.901L170.942 508.697C173.754 507.211 176.566 505.712 179.34 504.175C184.914 501.14 190.424 498.003 195.783 494.804C198.456 493.204 201.092 491.554 203.664 489.904C206.237 488.254 208.746 486.566 211.117 484.853C213.487 483.14 215.744 481.402 217.661 479.714C218.619 478.871 219.49 478.039 220.183 477.309C220.864 476.578 221.381 475.898 221.482 475.671C221.482 475.659 221.507 475.621 221.494 475.621C221.482 475.633 221.482 475.633 221.469 475.646L221.431 475.684C221.419 475.709 221.406 475.722 221.394 475.747C221.343 475.81 221.331 475.86 221.268 475.974C221.23 476.062 221.154 476.188 221.104 476.326C221.028 476.49 220.977 476.641 220.902 476.868L220.851 477.019C220.839 477.069 220.851 477.019 220.851 477.006L220.864 476.943L220.927 476.679L221.053 476.137L221.545 473.996C221.709 473.278 221.848 472.56 221.999 471.842C222.314 470.406 222.554 468.958 222.819 467.509C222.957 466.791 223.058 466.061 223.172 465.33C223.285 464.6 223.411 463.882 223.499 463.151C223.928 460.241 224.256 457.307 224.521 454.359C224.773 451.412 224.937 448.465 225.063 445.505C225.164 442.545 225.189 439.585 225.139 436.637C225.101 433.677 224.975 430.73 224.773 427.782C224.584 424.848 224.319 421.925 223.966 419.041C223.789 417.605 223.588 416.182 223.373 414.796C223.272 414.103 223.159 413.423 223.045 412.756L222.869 411.798L222.73 411.118L255.604 403.788Z"/><path fill="#A92F4B" d="M220.47 411.912L214.468 457.382C223.434 462.395 231.933 465.985 239.751 467.408L220.47 411.912Z"/><path fill="#D46A43" d="M233.209 482.196C233.083 482.196 232.945 482.171 232.831 482.095C228.166 479.563 221.747 477.435 221.684 477.409C221.268 477.271 221.041 476.817 221.18 476.402C221.319 475.986 221.772 475.759 222.189 475.898C222.453 475.986 228.809 478.09 233.6 480.697C233.991 480.911 234.13 481.39 233.916 481.78C233.777 482.057 233.5 482.196 233.209 482.196Z"/><path fill="#D46A43" d="M222.376 477.611C221.972 477.611 221.632 477.309 221.581 476.906C221.531 476.465 221.846 476.074 222.287 476.024C225.604 475.659 229.954 475.634 230.131 475.634C230.572 475.634 230.925 475.986 230.925 476.427C230.925 476.868 230.572 477.221 230.131 477.233C230.08 477.233 225.679 477.258 222.451 477.611C222.439 477.611 222.401 477.611 222.376 477.611Z"/><path fill="#EA9B7A" d="M136.034 664.292L127.75 677.794L111.987 670.829L119.137 656.306L136.034 664.292Z"/><path fill="#FAAF3A" d="M62.0305 678.499L121.687 704.875C122.482 704.27 123.238 703.225 123.944 701.915C126.555 697.04 128.509 688.286 129.972 682.857C130.136 682.228 130.3 681.636 130.464 681.107C130.728 680.212 130.981 679.469 131.208 678.953C133.036 674.809 129.064 673.902 129.064 673.902C120.401 677.152 117.501 665.261 112.217 666.395C112.217 666.395 109.948 666.861 103.327 669.027C96.7073 671.194 87.4013 670.438 79.2806 670.274C68.7893 670.06 64.6407 672.642 63.0267 674.96C61.7279 676.811 62.0305 678.499 62.0305 678.499Z"/><path fill="#C77E2E" d="M62.0309 678.499L121.688 704.875C122.482 704.27 123.239 703.225 123.945 701.915L63.0145 674.973C61.7283 676.812 62.0309 678.499 62.0309 678.499Z"/><path fill="#C77E2E" d="M115.604 702.179L117.382 702.96C116.512 700.163 116.222 696.334 118.404 692.001C121.304 686.245 126.6 683.839 129.967 682.857C130.131 682.227 130.295 681.635 130.459 681.106C126.915 681.963 120.484 684.406 117.017 691.309C114.923 695.44 114.911 699.219 115.604 702.179Z"/><path fill="#fff" d="M102.774 672.995C103.215 673.184 103.745 673.071 104.06 672.667C104.426 672.201 104.338 671.521 103.871 671.156L100.555 668.586C100.088 668.221 99.4072 668.309 99.0415 668.775C98.6758 669.241 98.7641 669.922 99.2307 670.287L102.547 672.856C102.61 672.919 102.686 672.97 102.774 672.995Z"/><path fill="#fff" d="M107.844 671.534C108.285 671.723 108.815 671.609 109.13 671.206C109.496 670.74 109.408 670.06 108.941 669.695L105.625 667.125C105.158 666.76 104.477 666.848 104.112 667.314C103.746 667.78 103.834 668.46 104.301 668.826L107.617 671.395C107.693 671.458 107.768 671.509 107.844 671.534Z"/><path fill="#fff" d="M98.0786 673.512C98.5199 673.701 99.0495 673.587 99.3648 673.184C99.7304 672.718 99.6422 672.038 99.1756 671.673L95.8592 669.103C95.3927 668.738 94.7118 668.826 94.3461 669.292C93.9804 669.758 94.0687 670.438 94.5352 670.804L97.8516 673.373C97.9272 673.436 98.0029 673.486 98.0786 673.512Z"/><path fill="#fff" d="M93.4291 673.952C93.8705 674.141 94.4001 674.028 94.7153 673.625C95.081 673.158 94.9928 672.478 94.5262 672.113L91.2098 669.544C90.7433 669.178 90.0623 669.266 89.6967 669.732C89.331 670.198 89.4193 670.879 89.8858 671.244L93.2022 673.813C93.2778 673.864 93.3535 673.914 93.4291 673.952Z"/><path fill="#fff" d="M88.5222 674.078C88.9635 674.267 89.4931 674.154 89.8084 673.751C90.174 673.285 90.0858 672.605 89.6192 672.24L86.3029 669.67C85.8363 669.305 85.1554 669.393 84.7897 669.859C84.424 670.325 84.5123 671.005 84.9788 671.37L88.2952 673.94C88.3582 673.99 88.4339 674.041 88.5222 674.078Z"/><path fill="#fff" d="M83.388 673.764C83.8293 673.953 84.359 673.839 84.6742 673.436C85.0399 672.97 84.9516 672.29 84.4851 671.925L81.1687 669.355C80.7021 668.99 80.0212 669.078 79.6555 669.544C79.2898 670.01 79.3781 670.69 79.8447 671.056L83.161 673.625C83.2241 673.688 83.2997 673.739 83.388 673.764Z"/><path fill="#39393B" d="M173.072 533.964C178.608 528.523 222.288 516.355 251.29 524.442C254.619 530.828 258.843 547.013 248.453 561.99C210.334 568.212 189.061 581.022 189.061 581.022C189.061 581.022 175.531 612.221 167.498 623.671C159.466 635.12 141.043 671.484 141.043 671.484L113.289 659.644C113.302 659.644 158.003 548.777 173.072 533.964Z"/><path fill="#585859" d="M144.017 664.632C143.916 664.632 143.815 664.607 143.714 664.569L116.553 653.296C116.149 653.132 115.948 652.654 116.124 652.25C116.288 651.847 116.755 651.646 117.171 651.822L144.332 663.095C144.736 663.259 144.937 663.738 144.761 664.141C144.635 664.443 144.332 664.632 144.017 664.632Z"/><path fill="#585859" d="M139.453 662.352C139.352 662.352 139.251 662.339 139.163 662.302C138.747 662.138 138.557 661.672 138.709 661.269C138.759 661.13 144.446 646.96 157.699 626.87C170.863 606.918 184.633 573.174 184.772 572.834C184.936 572.431 185.403 572.23 185.819 572.393C186.222 572.557 186.424 573.023 186.26 573.439C186.121 573.779 172.301 607.661 159.048 627.752C145.884 647.703 140.26 661.722 140.209 661.861C140.071 662.15 139.768 662.352 139.453 662.352Z"/><path fill="#EA9B7A" d="M206.085 666.672L203.979 682.367H186.741L187.397 666.206L206.085 666.672Z"/><path fill="#FAAF3A" d="M144.169 709.586H209.411C209.891 708.704 210.155 707.457 210.269 705.971C210.672 700.454 208.92 691.662 208.05 686.12C207.949 685.477 207.86 684.873 207.785 684.319C207.659 683.387 207.596 682.618 207.596 682.051C207.596 677.53 203.586 678.298 203.586 678.298C196.978 684.76 189.513 675.061 185.15 678.248C185.15 678.248 183.271 679.595 178.089 684.243C172.906 688.904 164.105 691.964 156.602 695.101C146.918 699.144 144.181 703.174 143.639 705.958C143.21 708.162 144.169 709.586 144.169 709.586Z"/><path fill="#C77E2E" d="M144.17 709.585H209.413C209.892 708.704 210.157 707.457 210.27 705.97H143.64C143.211 708.162 144.17 709.585 144.17 709.585Z"/><path fill="#C77E2E" d="M202.75 709.586H204.692C202.763 707.382 200.947 703.993 201.187 699.157C201.502 692.72 205.373 688.375 208.059 686.12C207.958 685.478 207.87 684.873 207.794 684.319C204.894 686.536 200.014 691.372 199.636 699.081C199.396 703.691 200.922 707.142 202.75 709.586Z"/><path fill="#fff" d="M179.184 688.085C179.663 688.085 180.104 687.757 180.23 687.266C180.369 686.686 180.029 686.107 179.449 685.968L175.376 684.961C174.796 684.822 174.216 685.162 174.077 685.742C173.938 686.321 174.291 686.901 174.859 687.039L178.932 688.047C179.007 688.072 179.096 688.085 179.184 688.085Z"/><path fill="#fff" d="M183.228 684.696C183.708 684.696 184.149 684.369 184.275 683.878C184.414 683.298 184.073 682.719 183.493 682.58L179.42 681.573C178.84 681.434 178.26 681.787 178.121 682.354C177.983 682.933 178.336 683.512 178.903 683.651L182.976 684.659C183.064 684.684 183.14 684.696 183.228 684.696Z"/><path fill="#fff" d="M175.118 690.452C175.597 690.452 176.039 690.125 176.165 689.633C176.304 689.054 175.963 688.475 175.383 688.336L171.31 687.328C170.73 687.19 170.15 687.53 170.011 688.109C169.873 688.689 170.213 689.268 170.793 689.407L174.866 690.414C174.942 690.44 175.03 690.452 175.118 690.452Z"/><path fill="#fff" d="M171.036 692.72C171.515 692.72 171.956 692.393 172.082 691.901C172.221 691.322 171.881 690.743 171.301 690.604L167.228 689.596C166.648 689.458 166.068 689.81 165.929 690.377C165.79 690.957 166.143 691.536 166.711 691.675L170.784 692.682C170.859 692.72 170.948 692.72 171.036 692.72Z"/><path fill="#fff" d="M166.588 694.823C167.068 694.823 167.509 694.496 167.635 694.004C167.774 693.425 167.421 692.845 166.853 692.707L162.78 691.699C162.2 691.561 161.62 691.901 161.481 692.48C161.343 693.06 161.696 693.639 162.263 693.778L166.336 694.785C166.424 694.823 166.513 694.823 166.588 694.823Z"/><path fill="#fff" d="M161.777 696.625C162.256 696.625 162.697 696.297 162.823 695.806C162.962 695.226 162.622 694.647 162.042 694.508L157.969 693.501C157.389 693.362 156.809 693.702 156.67 694.282C156.531 694.861 156.884 695.441 157.452 695.579L161.525 696.587C161.613 696.612 161.688 696.625 161.777 696.625Z"/><path fill="#DF615C" d="M336.777 536.798C336.752 537.062 336.714 537.314 336.689 537.553C336.55 537.654 336.424 537.755 336.298 537.856C326.172 545.615 314.357 550.779 302.29 553.714C301.861 553.814 301.445 553.915 301.016 554.016C298.948 554.495 296.867 554.91 294.787 555.25C291.975 555.716 289.163 556.082 286.376 556.321C283.905 556.535 281.446 556.674 279.025 556.711C268.584 556.9 258.685 555.54 250.312 552.882C249.997 552.782 249.669 552.681 249.354 552.567C247.135 551.824 245.041 550.993 243.074 550.073C242.772 549.935 242.469 549.796 242.179 549.645C240.956 549.053 239.783 548.411 238.673 547.743C238.85 543.725 238.9 538.914 238.863 533.775C238.863 533.346 238.863 532.918 238.85 532.49C238.774 525.336 238.56 517.614 238.283 510.561C238.257 510.221 238.245 509.893 238.245 509.566C238.093 505.875 237.917 502.374 237.766 499.262C237.74 498.935 237.728 498.595 237.715 498.28C237.576 495.647 237.438 493.292 237.312 491.365C237.274 490.874 237.249 490.395 237.211 489.904C237.186 489.526 237.16 489.148 237.135 488.783C237.034 487.422 236.921 486.1 236.807 484.79C236.631 482.699 236.429 480.671 236.215 478.706C235.962 476.464 235.698 474.273 235.42 472.169C235.105 469.902 234.79 467.71 234.449 465.607C234.084 463.352 233.705 461.186 233.302 459.107C231.902 451.777 230.326 445.479 228.75 440.037C228.636 439.66 228.535 439.307 228.422 438.929C227.779 436.763 227.148 434.76 226.53 432.871C226.392 432.455 226.253 432.052 226.127 431.636C222.621 421.245 219.721 414.972 219.671 410.765C219.57 402.011 225.975 399.202 232.659 395.675C232.974 395.512 233.289 395.348 233.604 395.172C234.727 394.567 235.862 393.925 236.946 393.232C237.413 392.942 237.866 392.64 238.308 392.325C238.623 392.111 238.913 391.884 239.203 391.67C241.851 389.63 244.171 387.073 245.684 383.445L270.942 378.13C270.942 378.13 273.363 379.377 277.411 380.46C277.789 380.561 278.18 380.661 278.596 380.762C279.075 380.875 279.567 380.989 280.084 381.09C280.399 381.153 280.74 381.216 281.067 381.279C281.32 381.329 281.584 381.379 281.849 381.417C284.27 381.795 287.07 382.034 290.235 381.971C290.55 381.959 290.878 381.959 291.193 381.946C291.42 381.934 291.647 381.921 291.874 381.921C294.018 381.808 296.06 382.085 298.027 382.714C298.406 382.828 298.771 382.966 299.137 383.118C307.346 386.392 313.802 396.192 317.976 411.244C319.136 415.425 320.284 419.506 321.393 423.487C321.519 423.928 321.633 424.356 321.759 424.784C321.999 425.653 322.238 426.522 322.478 427.391C322.566 427.706 322.654 428.021 322.743 428.336C323.6 431.422 324.432 434.47 325.239 437.481C325.328 437.795 325.416 438.123 325.492 438.438C325.542 438.614 325.58 438.778 325.63 438.942L326.084 440.705C328.884 451.474 331.216 461.853 332.717 472.32C333.032 474.499 333.31 476.678 333.537 478.87C333.6 479.399 333.663 480.004 333.726 480.659C333.738 480.785 333.751 480.898 333.763 481.024C333.789 481.251 333.814 481.477 333.839 481.717C333.852 481.83 333.864 481.956 333.877 482.069C334.28 486.037 334.797 491.529 335.314 497.587C335.34 497.902 335.378 498.23 335.403 498.557C336.563 512.639 337.609 529.417 336.777 536.798Z"/><path fill="#A92F4B" d="M259.915 398.271C270.002 396.142 275.45 383.547 275.677 382.992C275.828 382.627 275.664 382.199 275.299 382.048C274.933 381.897 274.504 382.06 274.353 382.426C274.302 382.552 268.767 395.387 259.032 396.961C249.461 398.51 245.653 391.482 245.489 391.18C245.3 390.827 244.871 390.688 244.518 390.877C244.165 391.066 244.026 391.495 244.216 391.847C244.253 391.935 248.642 400.11 259.272 398.384C259.486 398.359 259.7 398.309 259.915 398.271Z"/><path fill="#A92F4B" d="M270.152 532.339C279.635 530.349 289.432 525.475 299.23 517.829C312.672 507.337 321.499 495.169 321.587 495.043C321.814 494.716 321.751 494.275 321.423 494.036C321.095 493.809 320.641 493.872 320.414 494.199C320.326 494.325 311.6 506.342 298.322 516.708C286.141 526.218 267.504 536.244 247.934 529.996C247.555 529.87 247.152 530.085 247.026 530.462C246.9 530.84 247.114 531.243 247.492 531.369C254.705 533.674 262.321 533.989 270.152 532.339Z"/><path fill="#A92F4B" d="M264.475 525.109C279.254 521.746 287.185 499.477 287.526 498.533C287.652 498.155 287.463 497.752 287.084 497.613C286.706 497.487 286.302 497.676 286.164 498.054C286.088 498.281 278.157 520.512 264.172 523.699C263.781 523.787 263.542 524.177 263.63 524.568C263.706 524.946 264.084 525.185 264.475 525.109Z"/><path fill="#A92F4B" d="M237.191 489.891C239.02 488.632 240.747 487.07 242.109 485.294C245.4 481.011 245.842 476.628 243.358 472.95C242.853 472.22 242.399 471.539 241.971 470.922C236.889 463.516 236.359 462.748 236.801 450.568C236.939 446.739 235.855 443.716 233.585 441.625C232.059 440.201 230.193 439.383 228.403 438.904C228.516 439.269 228.617 439.635 228.73 440.012C230.218 440.466 231.706 441.196 232.929 442.33C234.985 444.232 235.956 447.003 235.83 450.542C235.376 463.037 236.031 463.995 241.164 471.477C241.592 472.106 242.046 472.774 242.551 473.504C245.577 477.951 243.093 482.435 241.34 484.715C240.167 486.239 238.692 487.624 237.116 488.77C237.141 489.136 237.179 489.514 237.191 489.891Z"/><path fill="#A92F4B" d="M333.871 482.045C331.904 483.191 330 483.909 328.184 484.299C323.279 485.332 319.029 483.846 316.293 481.1C313.027 477.812 311.753 472.157 315.65 467.723C319.407 463.428 317.793 461.148 315.751 458.251C313.733 455.405 311.224 451.853 313.834 445.618C315.335 442.028 317.642 439.572 320.694 438.338C322.219 437.72 323.77 437.468 325.233 437.431C325.321 437.746 325.41 438.073 325.485 438.388C324.06 438.401 322.535 438.627 321.047 439.232C318.247 440.365 316.116 442.645 314.717 445.983C312.308 451.727 314.464 454.75 316.532 457.685C318.638 460.67 320.631 463.491 316.369 468.34C313.229 471.918 313.468 476.88 316.974 480.395C320.505 483.947 326.797 485.181 333.757 480.961C333.783 481.188 333.808 481.415 333.833 481.654C333.858 481.805 333.871 481.931 333.871 482.045Z"/><path fill="#A92F4B" d="M268.013 485.672C270.446 489.854 275.717 491.857 280.534 490.458C281.266 490.244 282.035 489.967 282.804 489.64C288.995 486.995 296.132 480.76 298.869 473.505C300.975 467.912 300.331 462.181 296.99 456.954C292.047 449.22 289.184 442.028 288.705 436.184C288.415 432.72 286.032 430.037 282.64 429.344C279.223 428.651 275.969 430.188 274.343 433.261C274.254 433.425 274.166 433.589 274.078 433.753C269.917 441.864 272.401 447.734 274.595 452.911C276.89 458.327 278.87 463 272.603 469.071C266.89 474.588 265.175 480.797 268.013 485.672ZM273.271 469.751C280.03 463.214 277.81 458.012 275.478 452.52C273.258 447.293 270.976 441.902 274.935 434.181C275.024 434.017 275.099 433.853 275.188 433.702C275.944 432.279 277.092 431.233 278.454 430.654C279.664 430.138 281.039 429.986 282.438 430.276C285.414 430.893 287.495 433.236 287.747 436.259C288.037 439.66 289.033 443.376 290.761 447.394C292.122 450.58 293.938 453.931 296.183 457.458C299.398 462.496 299.991 467.774 297.973 473.164C295.01 481.049 286.637 487.675 280.269 489.526C275.856 490.811 271.064 488.985 268.845 485.181C266.247 480.722 267.899 474.953 273.271 469.751Z"/><path fill="#A92F4B" d="M226.093 431.61C226.232 432.013 226.358 432.417 226.497 432.832C229.864 434.18 232.965 434.13 235.437 433.601C236.698 433.336 237.795 432.946 238.69 432.568C244.856 429.91 249.043 424.204 248.942 420.753C248.904 419.456 248.248 418.511 247.101 418.095C240.468 415.677 237.77 411.306 236.761 401.368C236.484 398.673 235.412 396.582 233.558 395.133C233.243 395.297 232.928 395.461 232.612 395.637C232.688 395.688 232.764 395.75 232.852 395.813C234.554 397.086 235.538 398.988 235.79 401.469C236.837 411.86 239.712 416.445 246.761 419.002C247.542 419.292 247.933 419.871 247.958 420.778C248.047 423.914 243.936 429.242 238.287 431.686C235.689 432.82 231.162 433.953 226.093 431.61Z"/><path fill="#A92F4B" d="M260.331 433.21C261.517 434.495 263.433 434.974 265.337 434.583C265.968 434.445 266.598 434.218 267.191 433.89C270.243 432.203 271.377 428.676 270.23 424.469C269.032 420.086 271.314 417.982 273.521 415.954C275.463 414.178 277.455 412.339 275.879 409.19C274.669 406.772 272.424 405.638 269.423 405.915C265.88 406.256 262.778 408.422 261.113 411.722C258.289 417.302 255.59 428.071 260.331 433.21ZM261.971 412.15C263.307 409.493 265.766 407.591 268.528 407.011C268.856 406.948 269.183 406.898 269.511 406.86C272.134 406.608 273.988 407.54 275.022 409.606C276.283 412.113 274.845 413.422 272.865 415.236C270.671 417.252 267.948 419.758 269.297 424.708C270.318 428.462 269.36 431.573 266.724 433.034C264.745 434.13 262.298 433.928 261.037 432.555C256.624 427.782 259.272 417.503 261.971 412.15Z"/><path fill="#A92F4B" d="M246.143 467.307C246.685 469.852 247.707 471.917 249.472 472.95C252.12 474.5 254.718 475.104 256.634 474.701C257.467 474.525 258.16 474.159 258.69 473.605C260.253 471.93 259.736 468.92 257.278 465.342C254.428 461.198 256.924 458.566 259.585 455.77C261.842 453.389 264.188 450.933 262.876 447.57C261.931 445.152 259.762 444.031 256.597 444.308C251.288 444.786 246.912 449.044 246.194 454.447C245.626 458.642 245.349 463.516 246.143 467.307ZM247.139 454.586C247.442 452.306 248.451 450.253 249.913 448.653C251.389 447.054 253.318 445.907 255.474 445.454C255.865 445.366 256.256 445.315 256.672 445.278C259.434 445.038 261.174 445.895 261.968 447.923C263.065 450.719 261.035 452.86 258.892 455.115C256.218 457.924 253.192 461.11 256.483 465.897C258.665 469.058 259.219 471.64 257.984 472.95C256.609 474.424 253.318 474.084 249.964 472.119C246.887 470.305 245.878 464.083 247.139 454.586Z"/><path fill="#A92F4B" d="M238.275 510.549C242.146 509.15 243.445 511.09 245.324 513.899C247.013 516.406 249.106 519.529 253.81 520.638C255.411 521.016 256.95 521.003 258.4 520.701C262.195 519.907 265.297 517.073 266.785 513.899C268.79 509.629 267.908 505.359 264.465 502.777C262.965 501.656 262.183 500.585 262.031 499.515C261.83 498.003 262.965 496.542 264.175 494.993C265.852 492.839 267.756 490.408 266.294 487.284C265.146 484.828 262.99 483.367 260.216 483.153C255.6 482.813 250.431 485.937 247.038 491.088C244.138 495.497 240.469 497.424 237.682 498.255C237.695 498.57 237.72 498.91 237.732 499.238C240.721 498.381 244.718 496.353 247.833 491.617C250.405 487.713 254.024 485.042 257.555 484.299C258.425 484.11 259.295 484.047 260.14 484.11C262.548 484.287 264.415 485.559 265.411 487.687C266.609 490.269 265.045 492.272 263.393 494.388C262.12 496.026 260.796 497.714 261.048 499.628C261.224 500.963 262.145 502.235 263.847 503.533C267.491 506.279 267.29 510.473 265.877 513.483C263.986 517.514 259.295 520.94 253.999 519.693C249.661 518.673 247.757 515.851 246.093 513.357C244.214 510.549 242.575 508.105 238.199 509.541C238.249 509.881 238.262 510.208 238.275 510.549Z"/><path fill="#A92F4B" d="M287.31 498.872C287.638 500.547 288.647 501.694 290.135 502.097C290.929 502.311 291.812 502.311 292.745 502.122C294.826 501.681 297.108 500.27 298.974 498.154C300.891 495.988 302.807 496.265 305.456 496.643C308.028 497.008 311.231 497.474 315.316 495.622C319.856 493.557 320.612 489.274 319.402 486.163C318.292 483.354 315.304 480.911 311.344 482.221C308.507 483.153 306.666 484.601 305.027 485.861C302.53 487.8 300.386 489.476 295.456 489.173C293.01 489.022 291.043 489.677 289.643 491.113C286.919 493.897 287.285 498.62 287.298 498.809C287.31 498.847 287.31 498.86 287.31 498.872ZM288.256 498.708C288.231 498.343 288.004 494.161 290.336 491.781C291.534 490.559 293.237 490.005 295.393 490.131C300.676 490.446 303.072 488.594 305.607 486.616C307.259 485.332 308.961 484.009 311.647 483.115C315.014 482.006 317.561 484.097 318.494 486.503C319.553 489.199 318.885 492.927 314.913 494.728C311.079 496.466 308.154 496.051 305.582 495.673C304.094 495.459 302.732 495.27 301.42 495.547C300.323 495.774 299.277 496.34 298.243 497.499C295.809 500.245 292.568 501.757 290.374 501.165C289.265 500.862 288.521 500.018 288.256 498.708Z"/><path fill="#A92F4B" d="M329.52 522.048C326.216 527.515 327.604 533.598 330.882 536.332C332.458 537.642 334.325 538.158 336.304 537.856C336.43 537.755 336.556 537.654 336.695 537.553C336.733 537.314 336.758 537.062 336.796 536.798C334.854 537.264 333.038 536.873 331.5 535.588C328.549 533.12 327.301 527.565 330.352 522.552C333.442 517.463 331.008 515.889 328.436 514.226C326.078 512.689 323.619 511.115 323.997 506.543C324.186 504.288 325.094 502.474 326.721 501.152C328.133 500.006 329.936 499.338 331.702 498.96C333.013 498.683 334.312 498.57 335.422 498.532C335.396 498.204 335.371 497.889 335.346 497.562C332.61 497.663 328.789 498.23 326.116 500.409C324.287 501.895 323.253 503.935 323.051 506.467C322.635 511.606 325.573 513.508 327.931 515.032C330.441 516.67 332.118 517.766 329.52 522.048Z"/><path fill="#A92F4B" d="M249.36 552.555C249.676 552.668 249.991 552.769 250.319 552.87C250.357 551.384 250.71 548.197 252.916 546.056C254.757 544.28 257.506 543.574 261.087 543.965C265.841 544.494 267.998 546.459 269.889 548.197C273.079 551.119 275.299 552.505 283.621 547.076C286.786 545.01 289.724 543.801 292.284 543.26C296.42 542.39 299.598 543.247 301.262 544.96C303.305 547.063 303.204 550.401 301.022 554.004C301.451 553.903 301.867 553.802 302.296 553.701C304.276 549.998 304.175 546.56 301.968 544.28C299.005 541.232 291.843 540.551 283.104 546.257C274.996 551.56 273.319 550.023 270.545 547.479C268.641 545.728 266.257 543.549 261.188 542.995C257.304 542.567 254.291 543.36 252.235 545.363C249.915 547.643 249.436 550.83 249.36 552.555Z"/><path fill="#A92F4B" d="M303.485 537.062C304.696 539.644 308.681 541.773 312.401 540.992C312.564 540.954 312.728 540.917 312.88 540.866C318.554 539.267 321.82 534.669 322.072 527.93C322.261 522.716 321.782 517.602 316.953 515.385C316.927 515.373 316.902 515.36 316.864 515.36C316.637 515.31 311.291 514.012 307.962 516.267C306.562 517.211 305.73 518.647 305.49 520.512C305.049 523.812 306.058 525.84 306.777 527.313C307.684 529.127 308.088 529.958 305.314 531.848C303.258 533.271 302.59 535.173 303.485 537.062ZM305.856 532.666C309.16 530.412 308.681 529.014 307.647 526.91C306.941 525.474 306.045 523.673 306.436 520.663C306.651 519.076 307.344 517.866 308.504 517.073C311.341 515.146 316.095 516.179 316.587 516.292C320.042 517.892 321.353 521.267 321.101 527.893C320.937 532.339 319.323 538.045 312.615 539.947C309.273 540.879 305.427 538.952 304.356 536.659C303.662 535.186 304.192 533.8 305.856 532.666Z"/><path fill="#A92F4B" d="M242.185 549.633C242.475 549.785 242.777 549.923 243.08 550.062C245.098 547.706 245.93 545.137 245.539 542.454C244.909 538.096 241.264 534.443 238.856 532.478C238.868 532.906 238.868 533.335 238.868 533.763C241.113 535.74 244.064 538.94 244.593 542.592C244.946 545.036 244.165 547.366 242.273 549.545C242.248 549.57 242.21 549.608 242.185 549.633Z"/><path fill="#39393B" d="M223.609 340.041C223.609 340.041 209.296 337.018 208.956 331.564C208.653 326.526 214.605 327.055 214.605 327.055C214.605 327.055 207.657 315.668 211.642 313.439C215.627 311.197 220.658 317.583 220.658 317.583C220.658 317.583 217.014 304.08 221.881 305.05C226.748 306.02 227.379 313.439 227.379 313.439C227.379 313.439 243.557 307.682 252.75 310.441C259.017 312.318 260.492 318.338 260.492 318.338C260.492 318.338 264.212 316.121 266.86 317.482C269.495 318.842 267.087 323.477 267.087 323.477C267.087 323.477 271.172 326.614 269.924 331.602C268.676 336.589 265.107 346.439 265.107 346.439L223.609 340.041Z"/><path fill="#EA9B7A" d="M243.819 379.718L245.206 386.293C246.102 386.746 246.997 387.124 247.879 387.426C260.741 391.872 271.271 380.801 271.271 380.801L266.466 358.028L246.518 377.135L243.819 379.718Z"/><path fill="#39393B" d="M243.82 379.717L245.207 386.292C246.102 386.746 246.997 387.124 247.88 387.426C256.795 381.531 261.725 369.855 261.725 369.855L246.531 377.135L243.82 379.717Z"/><path fill="#39393B" d="M231.154 326.525C231.154 326.525 215.581 331.362 224.824 346.766C224.824 346.754 232.44 330.782 231.154 326.525Z"/><path fill="#D46A43" d="M229.45 352.334C229.45 352.334 224.784 348.706 223.599 353.568C222.414 358.418 225.919 366.995 231.303 364.35L229.45 352.334Z"/><path fill="#EA9B7A" d="M228.723 368.634C228.723 368.634 231.572 382.225 245.708 379.214C259.755 376.229 267.006 363.193 267.397 362.576C267.409 362.563 267.409 362.563 267.409 362.563L266.955 359.678L264.622 344.69L263.374 336.679C263.374 336.679 262.164 322.043 248.053 322.294C237.738 322.483 228.798 326.086 225.192 332.232C223.868 334.5 223.262 337.12 223.59 340.042L226.15 354.363L226.781 357.877L228.723 368.634Z"/><path fill="#39393B" d="M257.57 346.452C257.57 346.452 255.489 354.79 250.887 354.412C246.284 354.022 241.177 354.551 237.621 357.209C237.621 357.209 230.497 356.151 227.13 359.69C224.873 362.071 230.181 379.78 240.03 380.41C249.878 381.052 261.718 375.145 262.891 365.749C264.064 356.352 262.298 348.933 262.298 348.933L257.57 346.452Z"/><path fill="#fff" d="M234.718 361.176C234.718 361.176 242.675 360.358 246.571 358.128C246.571 358.128 248.311 365.887 241.59 366.555C236.193 367.096 234.718 361.176 234.718 361.176Z"/><path fill="#D46A43" d="M244.982 352.221C245.196 353.203 247.403 353.581 249.912 353.052C252.421 352.523 254.3 351.288 254.086 350.306C253.872 349.311 251.665 348.946 249.155 349.475C246.646 350.004 244.78 351.226 244.982 352.221Z"/><path fill="#D46A43" d="M226.796 357.864C227.149 357.826 227.527 357.763 227.906 357.687C230.415 357.158 232.294 355.924 232.08 354.941C231.865 353.959 229.658 353.581 227.149 354.11C226.809 354.186 226.481 354.261 226.166 354.362L226.796 357.864Z"/><path fill="#39393B" d="M243.994 346.742C244.284 348.102 245.129 349.072 245.885 348.908C246.642 348.745 247.033 347.523 246.743 346.163C246.453 344.802 245.608 343.832 244.851 343.996C244.095 344.16 243.704 345.382 243.994 346.742Z"/><path fill="#39393B" d="M230.531 349.576C230.821 350.936 231.666 351.906 232.422 351.742C233.179 351.578 233.57 350.357 233.28 348.996C232.99 347.636 232.145 346.666 231.388 346.83C230.632 346.981 230.253 348.215 230.531 349.576Z"/><path fill="#39393B" d="M238.895 354.954C239.21 354.891 239.399 354.589 239.336 354.274C239.273 353.959 238.971 353.77 238.655 353.833C236.6 354.262 235.415 353.392 234.986 352.977C236.247 347.913 237.483 342.812 237.495 342.762C237.571 342.459 237.382 342.144 237.079 342.069C236.777 341.993 236.461 342.182 236.386 342.485C236.373 342.535 235.087 347.825 233.801 352.989C233.763 353.153 233.801 353.329 233.902 353.468C233.977 353.581 235.579 355.66 238.895 354.954Z"/><path fill="#39393B" d="M249.486 339.083C248.868 337.711 247.102 335.28 242.475 336.035C241.907 336.123 241.478 336.602 241.453 337.169C241.415 337.887 241.983 338.491 242.702 338.479C243.963 338.441 245.867 338.731 247.304 340.507C247.746 341.061 248.59 341.086 249.095 340.595L249.208 340.482C249.587 340.116 249.7 339.562 249.486 339.083Z"/><path fill="#39393B" d="M225.959 344.034C225.971 342.535 226.589 339.588 231.141 338.416C231.696 338.278 232.276 338.542 232.541 339.046C232.869 339.689 232.592 340.47 231.923 340.747C230.751 341.225 229.124 342.258 228.531 344.45C228.342 345.13 227.598 345.495 226.93 345.256L226.778 345.206C226.287 345.029 225.959 344.551 225.959 344.034Z"/><path fill="#39393B" d="M261.816 357.99C261.917 358.128 264.578 361.894 267.402 362.574C267.415 362.562 267.415 362.562 267.415 362.562L266.961 359.677C266.961 359.665 264.653 359.753 261.816 357.99Z"/><path fill="#EA9B7A" d="M262.31 348.039C262.31 348.039 266.207 339.6 271.402 344.5C275.677 348.53 272.07 362.146 264.681 359.299L262.31 348.039Z"/><path fill="#39393B" d="M264.971 356.932C265.248 356.869 265.45 356.604 265.425 356.315C264.87 350.672 269.094 347.762 269.271 347.649C269.536 347.472 269.599 347.12 269.435 346.855C269.258 346.591 268.905 346.528 268.64 346.691C268.439 346.83 263.66 350.08 264.29 356.415C264.315 356.73 264.605 356.957 264.92 356.932C264.92 356.944 264.946 356.932 264.971 356.932Z"/><path fill="#39393B" d="M269.468 352.447C269.632 352.409 269.771 352.309 269.859 352.145C269.998 351.868 269.897 351.515 269.607 351.377C269.342 351.238 267.009 350.079 265.42 350.873C265.143 351.011 265.017 351.351 265.155 351.641C265.294 351.918 265.635 352.044 265.925 351.906C266.833 351.452 268.56 352.132 269.09 352.409C269.216 352.46 269.342 352.472 269.468 352.447Z"/><path fill="#39393B" d="M225.21 332.232C225.411 332.685 225.701 333.051 226.08 333.315C229.434 335.62 235.714 333.227 241.337 330.103C246.961 326.98 252.106 330.456 252.106 330.456C251.652 336.565 257.415 335.834 257.125 340.457C256.835 345.08 258.512 350.735 258.512 350.735L261.942 349.526C262.27 347.322 263.644 345.634 264.615 344.689L263.367 336.678C263.367 336.678 262.156 322.042 248.046 322.294C237.756 322.483 228.803 326.073 225.21 332.232Z"/><path fill="#39393B" d="M330.567 524.882C330.567 524.882 344.034 577.948 274.214 577.948C236.927 577.948 219.198 574.358 219.198 574.358C219.198 574.358 218.303 607.246 216.563 621.126C214.822 635.007 208.682 669.569 208.682 669.569L179.313 671.836C179.313 671.836 174.623 551.422 192.617 540.337C210.611 529.253 236.499 528.926 280.935 524.656C280.935 524.656 320.833 517.917 330.567 524.882Z"/><path fill="#585859" d="M204.66 659.946C204.597 659.946 204.534 659.934 204.471 659.921C204.043 659.82 203.778 659.392 203.879 658.964C207.939 642.022 209.553 617.763 210.839 598.265C212.113 579.044 212.882 568.93 214.874 567.166C217.081 565.227 223.613 565.919 234.445 567.066C247.874 568.489 268.15 570.643 290.028 568.136C300.898 566.889 309.22 562.644 314.781 555.503C324.756 542.693 322.473 524.719 322.448 524.542C322.385 524.102 322.7 523.699 323.129 523.648C323.57 523.585 323.974 523.9 324.024 524.328C324.125 525.084 326.433 543.134 316.042 556.473C310.204 563.967 301.516 568.426 290.205 569.723C268.15 572.242 247.761 570.089 234.268 568.653C224.95 567.658 217.598 566.877 215.921 568.363C215.543 568.703 214.786 570.353 214.017 577.646C213.437 583.037 212.97 590.141 212.428 598.378C211.129 617.94 209.515 642.274 205.417 659.342C205.354 659.694 205.026 659.946 204.66 659.946Z"/><path fill="#585859" d="M179.628 662.339C179.212 662.339 178.859 662.012 178.833 661.584C178.808 661.143 179.149 660.765 179.577 660.74L209.614 658.926C210.055 658.901 210.433 659.241 210.459 659.669C210.484 660.11 210.143 660.488 209.715 660.513L179.678 662.327C179.666 662.339 179.64 662.339 179.628 662.339Z"/><path fill="#CED3E6" d="M260.435 540.073H172.457C172.255 540.073 172.092 539.909 172.092 539.708V528.888C172.092 528.686 172.255 528.523 172.457 528.523H260.435C260.637 528.523 260.801 528.686 260.801 528.888V539.708C260.788 539.909 260.624 540.073 260.435 540.073Z"/><path fill="#fff" d="M162.836 540.073C159.495 540.073 156.582 537.831 155.712 534.607L139.117 472.548C138.109 468.756 140.971 465.028 144.893 465.028H184.613C187.299 465.028 189.645 466.804 190.376 469.386L210.249 540.061H162.836V540.073Z"/><path fill="#CED3E6" d="M190.375 469.399L210.084 539.494H214.623L194.914 469.399C194.183 466.817 191.837 465.041 189.151 465.041H184.612C187.298 465.028 189.643 466.817 190.375 469.399Z"/><path fill="#CED3E6" d="M179.151 503.558C180.059 507.45 177.626 510.611 173.716 510.611C169.82 510.611 165.924 507.45 165.016 503.558C164.108 499.666 166.542 496.504 170.451 496.504C174.36 496.504 178.243 499.666 179.151 503.558Z"/><path fill="#EA9B7A" d="M233.315 514.781C233.315 514.781 215.308 516.016 209.558 521.52L213.064 533.964C213.064 533.964 223.832 529.569 226.808 529.997C229.797 530.425 231.575 535.312 241.549 532.34L233.315 514.781Z"/><path fill="#EA9B7A" d="M233.419 513.962L235.449 513.131L237.555 512.249C238.967 511.657 240.367 511.04 241.779 510.41C244.591 509.163 247.378 507.879 250.152 506.543C255.688 503.886 261.123 501.064 266.356 498.079C271.589 495.081 276.658 491.907 281.273 488.506C282.421 487.65 283.555 486.793 284.64 485.924C285.724 485.043 286.771 484.161 287.78 483.267C289.759 481.478 291.575 479.639 293 477.85C293.706 476.969 294.337 476.074 294.803 475.294C295.219 474.576 295.623 473.782 295.976 472.888C296.682 471.112 297.237 469.008 297.615 466.703C298.359 462.068 298.384 456.715 297.905 451.236C297.426 445.744 296.455 440.076 295.182 434.446C294.538 431.624 293.807 428.803 293.013 426.019C292.609 424.621 292.193 423.236 291.764 421.875C291.55 421.195 291.323 420.515 291.109 419.847L290.781 418.877L290.617 418.411L290.541 418.197L290.503 418.097L290.491 418.059C286.695 410.149 290.037 400.651 297.956 396.86C305.875 393.069 315.382 396.407 319.178 404.317C319.544 405.085 319.846 405.866 320.086 406.647L320.565 408.297L320.691 408.738L320.792 409.091L320.981 409.771L321.322 411.081C321.536 411.95 321.75 412.794 321.952 413.65C322.356 415.351 322.734 417.038 323.074 418.726C323.78 422.115 324.386 425.503 324.903 428.929C325.924 435.781 326.618 442.746 326.706 449.951C326.756 453.553 326.63 457.219 326.302 460.947C325.962 464.688 325.382 468.504 324.436 472.409C323.478 476.314 322.129 480.307 320.136 484.287C319.127 486.277 317.955 488.242 316.58 490.144C315.244 491.983 313.882 493.57 312.482 495.069C309.683 498.041 306.795 500.51 303.882 502.765C300.969 504.994 298.019 506.997 295.055 508.861C289.129 512.564 283.139 515.713 277.099 518.598C271.059 521.469 264.969 524.064 258.84 526.47C255.776 527.666 252.699 528.825 249.597 529.934C248.046 530.488 246.495 531.029 244.932 531.559L242.574 532.352L240.115 533.146C234.781 534.859 229.056 531.936 227.329 526.608C225.689 521.532 228.262 516.116 233.129 514.113L233.419 513.962Z"/><path fill="#D46A43" d="M307.087 479.803C307.024 479.803 306.961 479.79 306.911 479.777C300.77 477.939 293.91 478.216 293.847 478.228C293.494 478.241 293.204 477.976 293.191 477.624C293.179 477.271 293.444 476.981 293.797 476.969C294.087 476.956 300.934 476.666 307.289 478.568C307.617 478.669 307.806 479.022 307.718 479.349C307.617 479.626 307.365 479.803 307.087 479.803Z"/><path fill="#D46A43" d="M295.397 478.216C295.22 478.216 295.044 478.14 294.918 478.002C294.691 477.737 294.716 477.347 294.981 477.107C297.276 475.13 300.151 474.261 300.277 474.223C300.605 474.122 300.958 474.311 301.059 474.651C301.16 474.979 300.97 475.331 300.63 475.432C300.605 475.445 297.881 476.263 295.8 478.052C295.687 478.165 295.536 478.216 295.397 478.216Z"/><path fill="#DF615C" d="M329.531 439.698L316.48 443.275L315.521 443.54L306.505 446.009L305.408 446.311L293.807 449.485L292.912 445.379L292.71 444.396L290.617 434.748L290.403 433.778L286.456 415.577C285.384 411.37 284.678 406.105 285.27 401.81C286.141 395.449 291.727 387.199 302.029 386.645C303.87 386.544 305.597 386.821 307.211 387.413C307.539 387.514 307.867 387.653 308.182 387.791C311.297 389.202 313.995 391.797 316.316 395.135C316.505 395.399 316.681 395.664 316.845 395.941C321.259 402.642 324.272 412.013 326.29 420.779C326.378 421.119 326.454 421.46 326.53 421.8C327.463 425.969 328.169 429.987 328.698 433.463C328.787 434.005 328.862 434.534 328.925 435.05C329.178 436.776 329.379 438.338 329.531 439.698Z"/><path fill="#A92F4B" d="M328.7 433.463C327.149 432.052 325.056 431.07 321.828 431.649C317.994 432.329 314.981 431.095 313.77 428.336C312.85 426.271 313.278 423.852 314.754 422.719C317.704 420.451 322.231 420.64 326.531 421.799C326.455 421.459 326.38 421.119 326.292 420.779C321.878 419.658 317.263 419.582 314.161 421.95C312.774 423.021 312.131 424.885 312.358 426.812C312.433 427.455 312.61 428.097 312.875 428.727C314.287 431.913 317.704 433.362 322.004 432.594C325.472 431.964 327.389 433.312 328.927 435.05C328.864 434.533 328.788 434.004 328.7 433.463Z"/><path fill="#A92F4B" d="M315.069 404.959C312.396 401.092 314.401 398.535 316.847 395.94C316.683 395.663 316.507 395.399 316.317 395.134C313.732 397.842 311.122 400.953 314.275 405.513C316.456 408.675 316.998 411.244 315.775 412.567C314.401 414.04 311.097 413.7 307.755 411.735C304.679 409.922 303.682 403.699 304.931 394.202C305.233 391.922 306.242 389.869 307.705 388.27C307.856 388.106 308.02 387.942 308.184 387.791C307.869 387.652 307.541 387.514 307.213 387.413C305.486 389.189 304.326 391.494 303.972 394.064C303.43 398.258 303.14 403.133 303.935 406.911C304.477 409.456 305.498 411.521 307.264 412.567C309.912 414.116 312.522 414.721 314.426 414.317C315.258 414.141 315.964 413.776 316.481 413.222C318.045 411.546 317.528 408.536 315.069 404.959Z"/><path fill="#A92F4B" d="M290.644 433.904C288.5 421.17 285.789 409.254 285.764 409.128C285.701 408.876 285.448 408.713 285.196 408.775C284.944 408.838 284.78 409.09 284.843 409.342C284.868 409.468 287.567 421.321 289.698 433.992C289.837 434.483 290.644 434.508 290.644 433.904Z"/><path fill="#A92F4B" d="M287.187 418.537C287.099 418.537 287.011 418.512 286.935 418.461L282.017 415.312C281.803 415.174 281.727 414.884 281.878 414.657C282.017 414.431 282.307 414.368 282.534 414.519L287.452 417.668C287.666 417.806 287.742 418.096 287.591 418.323C287.502 418.461 287.351 418.537 287.187 418.537Z"/><path fill="#fff" d="M255.322 419.897C253.657 419.897 252.131 419.292 250.77 418.096C242.989 411.256 243.027 386.392 243.027 385.334C243.027 384.843 243.431 384.44 243.935 384.44C244.439 384.44 244.843 384.843 244.83 385.347C244.83 385.599 244.793 410.438 251.955 416.736C253.178 417.806 254.515 418.234 256.015 418.033C265.586 416.773 269.936 388.949 270.806 378.331C270.844 377.84 271.286 377.462 271.777 377.5C272.269 377.538 272.647 377.979 272.61 378.47C272.597 378.571 271.777 388.37 269.445 398.258C266.229 411.836 261.79 419.091 256.255 419.821C255.94 419.884 255.624 419.897 255.322 419.897Z"/><path fill="#084FC7" d="M327.605 652.137H233.309C231.103 652.137 229.312 650.348 229.312 648.144C229.312 645.939 231.103 644.151 233.309 644.151H327.605C329.812 644.151 331.602 645.939 331.602 648.144C331.602 650.348 329.812 652.137 327.605 652.137Z"/><path fill="#0875F7" d="M224.633 713.062C224.457 713.062 224.28 713.049 224.104 713.024C221.922 712.734 220.384 710.719 220.674 708.54L237.848 580.442C238.113 578.464 239.803 576.978 241.808 576.978H318.74C320.745 576.978 322.434 578.464 322.699 580.442L339.609 708.54C339.899 710.719 338.361 712.734 336.166 713.011C333.985 713.301 331.967 711.764 331.69 709.573L315.234 584.938H245.301L228.593 709.585C228.328 711.613 226.613 713.062 224.633 713.062Z"/><path fill="#0875F7" d="M264.083 580.97H314.043C329.868 580.97 346.829 572.317 349.25 556.698C352.503 535.802 353.297 515.574 352.402 497.007C351.381 476.01 343.21 456.512 326.678 443.501C326.678 443.501 333.815 524.491 327.372 546.861C318.785 576.751 264.083 580.97 264.083 580.97Z"/><path fill="#0875F7" d="M111.179 414.192V438.149C111.179 441.31 113.751 443.88 116.916 443.88H160.47L173.622 448.59C174.972 449.069 176.27 447.747 175.741 446.411L170.773 433.576V414.179C170.773 411.018 168.2 408.448 165.023 408.448H116.929C113.751 408.448 111.179 411.018 111.179 414.192Z"/><path fill="#084FC7" d="M149.021 426.85C149.021 429.143 150.874 430.994 153.169 430.994C155.464 430.994 157.318 429.13 157.318 426.85C157.318 424.558 155.464 422.706 153.169 422.706C150.874 422.694 149.021 424.558 149.021 426.85Z"/><path fill="#084FC7" d="M135.872 426.85C135.872 429.142 137.726 430.994 140.021 430.994C142.316 430.994 144.17 429.13 144.17 426.85C144.17 424.557 142.316 422.706 140.021 422.706C137.726 422.693 135.872 424.557 135.872 426.85Z"/><path fill="#084FC7" d="M122.719 426.85C122.719 429.143 124.586 430.994 126.868 430.994C129.163 430.994 131.017 429.13 131.017 426.85C131.017 424.558 129.15 422.706 126.868 422.706C124.573 422.694 122.719 424.558 122.719 426.85Z"/></g></svg>